<svg width="395" height="360" viewBox="0 0 395 360" fill="none" xmlns="http://www.w3.org/2000/svg">
<path d="M44.6153 5.01237C68.5404 -3.86563 93.6343 2.37406 100.674 18.945C107.713 35.516 94.0266 56.1458 70.1015 65.0219C46.1764 73.8979 21.0743 67.664 14.0347 51.0892C6.99511 34.5143 20.6943 13.8884 44.6153 5.01237Z" fill="#F3AAAE"/>
<path d="M1.0861 293.512C1.35874 298.055 2.92077 302.487 5.68299 306.553C8.44522 310.619 12.3536 314.24 17.1848 317.21C22.0161 320.18 27.6758 322.44 33.8406 323.861C40.0054 325.282 46.5547 325.836 53.1146 325.492C59.6744 325.148 66.1163 323.913 72.0725 321.857C78.0286 319.8 83.3824 316.963 87.8281 313.507C92.2738 310.051 95.7244 306.044 97.9829 301.715C100.241 297.385 101.263 292.819 100.991 288.275C100.718 283.732 99.1561 279.3 96.3939 275.234C93.6316 271.168 89.7233 267.547 84.892 264.577C80.0607 261.607 74.4011 259.347 68.2362 257.926C62.0714 256.505 55.5221 255.951 48.9623 256.295C42.4024 256.638 35.9605 257.874 30.0044 259.93C24.0482 261.987 18.6944 264.824 14.2487 268.28C9.803 271.736 6.35242 275.743 4.09397 280.072C1.83552 284.401 0.813449 288.968 1.0861 293.512Z" fill="#F3AAAE"/>
<path d="M321.145 215.876C343.191 213.084 362.858 223.197 365.063 238.457C367.269 253.718 351.203 268.372 329.159 271.163C307.115 273.954 287.446 263.843 285.233 248.582C283.019 233.322 299.099 218.669 321.145 215.876Z" fill="#F3AAAE"/>
<path d="M328.781 44.8535C355.477 34.9487 383.482 41.9102 391.329 60.4035C399.176 78.8968 383.908 101.914 357.211 111.819C330.515 121.723 302.508 114.76 294.654 96.2687C286.801 77.7774 302.084 54.7563 328.781 44.8535Z" fill="#F3AAAE"/>
<path d="M135.21 52.5038H236.453C240.483 52.5043 244.347 53.9989 247.199 56.6594C250.051 59.32 251.656 62.9292 251.664 66.6951V253.716C251.664 257.486 250.062 261.102 247.209 263.768C244.356 266.435 240.487 267.932 236.453 267.932H136.195C132.125 267.948 128.209 266.481 125.278 263.841C122.348 261.201 120.634 257.597 120.501 253.795V66.7936C120.435 64.9459 120.766 63.1045 121.474 61.3784C122.183 59.6523 123.254 58.0765 124.626 56.7443C125.997 55.412 127.64 54.3503 129.459 53.6219C131.277 52.8936 133.232 52.5134 135.21 52.5038Z" fill="#F5F5F5"/>
<path d="M315.827 79.966C324.433 81.7841 333.26 82.5208 342.075 82.1566L344.066 78.8196C346.24 78.7289 346.645 78.7482 348.646 78.7482C355.235 73.3707 360.229 66.4951 363.144 58.7862C368.823 66.1416 372.848 74.4961 374.977 83.3454C354.779 94.6842 349.451 95.3172 330.515 106.145C326.718 96.9169 321.789 88.132 315.827 79.966Z" fill="#F5F5F5"/>
<path d="M84.3038 32.1269C82.41 27.1768 80.1431 22.3584 77.5203 17.7079C76.8376 16.4924 75.7055 15.5502 74.3349 15.0567C72.9643 14.5631 71.4485 14.5519 70.0697 15.0252C57.9412 19.198 46.0952 24.0558 34.5972 29.5716C33.4023 30.1452 32.445 31.0732 31.8755 32.2102C31.3059 33.3472 31.1563 34.6287 31.4501 35.8537C32.8774 41.8297 35.3852 47.5343 38.8655 52.7219C39.604 53.8148 40.7208 54.6381 42.0298 55.055C43.3389 55.4718 44.7612 55.457 46.06 55.0128C54.2306 52.2311 62.1948 48.9461 69.9004 45.1795L80.1676 48.4605L77.0907 41.4816C78.6904 40.617 80.255 39.744 81.7845 38.8626C82.9683 38.1811 83.8649 37.1395 84.3237 35.9128C84.7825 34.6862 84.7755 33.3493 84.3038 32.1269Z" fill="#F5F5F5"/>
<path d="M66.5678 292.438C65.8347 285.372 65.3515 281.728 64.7795 277.739C64.5415 276.076 63.6368 274.56 62.2484 273.496C60.86 272.433 59.0913 271.902 57.3001 272.011C57.3001 272.011 32.2908 273.599 23.719 274.228C22.792 274.296 21.8883 274.533 21.0596 274.928C20.2308 275.322 19.4934 275.865 18.8893 276.525C18.2852 277.186 17.8263 277.951 17.5389 278.778C17.2515 279.605 17.1412 280.476 17.2143 281.342C17.7338 287.197 18.9712 292.977 20.9024 298.567C21.388 299.989 22.3737 301.215 23.6993 302.047C25.0249 302.879 26.6125 303.267 28.2042 303.149C29.7447 303.036 31.2983 302.913 32.8649 302.779L33.9883 308.955L38.426 302.267C45.9198 301.555 54.3657 300.53 60.6268 299.61C62.4087 299.347 64.0161 298.459 65.1204 297.126C66.2247 295.793 66.7424 294.116 66.5678 292.438Z" fill="#F5F5F5"/>
<path d="M301.672 237.697C301.518 235.851 302.128 234.021 303.378 232.584C304.627 231.147 306.419 230.214 308.384 229.977L337.808 226.364C339.758 226.126 341.733 226.59 343.33 227.663C344.927 228.736 346.028 230.337 346.409 232.141C347.369 236.701 348.226 241.725 348.845 246.899C349.057 248.654 348.575 250.421 347.488 251.866C346.402 253.312 344.788 254.335 342.95 254.745C332.757 257.011 323.38 258.634 313.251 259.956C311.359 260.204 309.436 259.789 307.852 258.792C306.268 257.794 305.135 256.284 304.671 254.552C303.18 249.02 302.177 243.382 301.672 237.697Z" fill="#F5F5F5"/>
<path d="M323.953 247.496C327.231 246.458 330.068 244.466 332.046 241.812C331.824 241.366 331.538 240.95 331.197 240.575C330.771 240.102 330.544 239.5 330.56 238.882C330.575 238.263 330.832 237.672 331.282 237.219C331.467 237.03 331.666 236.853 331.877 236.69C332.359 236.299 332.988 236.103 333.625 236.145C334.262 236.186 334.856 236.462 335.276 236.912C335.73 237.41 336.08 237.985 336.308 238.604C337.725 242.497 333.372 246.527 332.156 247.658C329.163 250.445 323.449 253.622 319.912 251.618C319.61 251.445 319.353 251.213 319.158 250.936C318.963 250.66 318.836 250.347 318.786 250.02C318.735 249.692 318.762 249.359 318.865 249.042C318.968 248.726 319.144 248.434 319.381 248.189C319.715 247.843 320.084 247.53 320.484 247.253C321.003 246.899 321.641 246.731 322.281 246.779C322.921 246.827 323.522 247.088 323.974 247.515L323.953 247.496Z" fill="#FFD997" fill-opacity="0.93"/>
<path d="M173.923 56.8156H198.943C199.646 56.8156 200.321 57.0768 200.819 57.5419C201.317 58.007 201.596 58.6379 201.596 59.2956C201.596 59.9534 201.317 60.5842 200.819 61.0493C200.321 61.5144 199.646 61.7757 198.943 61.7757H173.923C173.219 61.7757 172.544 61.5144 172.047 61.0493C171.549 60.5842 171.27 59.9534 171.27 59.2956C171.27 58.6379 171.549 58.007 172.047 57.5419C172.544 57.0768 173.219 56.8156 173.923 56.8156Z" fill="#92070F"/>
<path d="M182.107 257.161C182.107 257.949 182.273 258.729 182.595 259.457C182.918 260.184 183.391 260.846 183.987 261.403C184.583 261.96 185.29 262.401 186.069 262.703C186.848 263.004 187.682 263.159 188.525 263.159C189.368 263.159 190.202 263.004 190.981 262.703C191.76 262.401 192.467 261.96 193.063 261.403C193.659 260.846 194.132 260.184 194.454 259.457C194.777 258.729 194.943 257.949 194.943 257.161C194.943 256.373 194.777 255.593 194.454 254.866C194.132 254.138 193.659 253.477 193.063 252.919C192.467 252.362 191.76 251.921 190.981 251.619C190.202 251.318 189.368 251.163 188.525 251.163C187.682 251.163 186.848 251.318 186.069 251.619C185.29 251.921 184.583 252.362 183.987 252.919C183.391 253.477 182.918 254.138 182.595 254.866C182.273 255.593 182.107 256.373 182.107 257.161Z" fill="#92070F"/>
<path d="M143.721 95.7842C143.721 100.408 145.686 104.842 149.185 108.112C152.683 111.381 157.427 113.218 162.374 113.218C167.321 113.218 172.066 111.381 175.564 108.112C179.062 104.842 181.027 100.408 181.027 95.7842C181.027 91.1605 179.062 86.7261 175.564 83.4567C172.066 80.1872 167.321 78.3505 162.374 78.3505C157.427 78.3505 152.683 80.1872 149.185 83.4567C145.686 86.7261 143.721 91.1605 143.721 95.7842Z" fill="#F3AAAE"/>
<path d="M143.721 154.603C143.721 159.227 145.686 163.661 149.185 166.93C152.683 170.2 157.427 172.037 162.374 172.037C167.321 172.037 172.066 170.2 175.564 166.93C179.062 163.661 181.027 159.227 181.027 154.603C181.027 149.979 179.062 145.545 175.564 142.275C172.066 139.006 167.321 137.169 162.374 137.169C157.427 137.169 152.683 139.006 149.185 142.275C145.686 145.545 143.721 149.979 143.721 154.603Z" fill="#F3AAAE"/>
<path d="M143.801 217.901C143.387 213.661 144.649 209.426 147.349 205.997C150.049 202.567 153.999 200.181 158.453 199.288C162.907 198.396 167.557 199.059 171.524 201.152C175.49 203.246 178.499 206.624 179.982 210.65C181.465 214.676 181.319 219.07 179.571 223.002C177.823 226.933 174.596 230.131 170.497 231.99C166.399 233.849 161.714 234.24 157.328 233.091C152.942 231.941 149.158 229.33 146.692 225.75L143.801 217.901Z" fill="#F3AAAE"/>
<path d="M184.88 356.325C216.517 360.851 248.873 355.786 277.206 341.873C272.87 323.09 268.178 295.344 269.702 276.089C270.513 267.465 272.185 258.932 274.695 250.599C277.685 239.577 278.133 241.026 280.118 233.071C282.356 224.102 284.516 215.462 283.364 204.362C282.626 197.523 280.807 190.824 277.968 184.483C276.537 180.758 274.309 177.343 271.422 174.447C268.974 172.105 266.083 170.208 262.896 168.85C251.104 166.65 246.291 159.057 237.009 150.467C233.98 147.348 230.251 144.892 226.089 143.276C224.52 142.535 222.728 142.318 221.009 142.662C217.005 143.729 215.57 148.74 215.227 149.913C214.479 153.207 214.703 156.628 215.873 159.812C217.408 164.463 219.749 168.848 222.802 172.791C225.682 177.026 228.976 181.003 232.641 184.67C234.884 187.176 237.552 189.321 240.538 191.02C243.724 192.62 247.266 193.501 250.881 193.595L252.12 196.069C234.209 225.308 231.962 227.839 229.765 235.935C228.519 240.369 228.047 244.961 228.367 249.536C228.895 256.012 231.075 262.277 234.723 267.805H144.214C145.15 273.235 147.461 278.377 150.954 282.803C154.447 287.229 159.022 290.81 164.296 293.248L184.88 356.325Z" fill="#FFD997" fill-opacity="0.93"/>
<path d="M120.328 152.995C112.457 143.471 105.245 133.487 98.7363 123.103C90.7447 110.317 89.2806 105.61 89.7659 100.829C89.96 98.8991 90.342 95.5911 93.0059 93.8059C96.4627 91.4899 101.45 93.3041 102.466 93.6669C105.501 94.7496 107.033 96.4635 110.87 100.542C112.685 102.472 115.921 105.897 120.328 110.5V152.995Z" fill="#FFD997" fill-opacity="0.93"/>
<path d="M120.329 154.609C119.092 154.928 117.937 155.478 116.934 156.226C115.278 157.592 114.084 159.379 113.498 161.369C111.984 164.62 111.041 168.078 110.706 171.61C110.478 177.923 112.454 184.134 116.335 189.306C113.52 192.555 111.743 196.48 111.21 200.631C110.677 204.781 111.409 208.988 113.322 212.767C110.909 215.955 109.49 219.706 109.223 223.602C108.73 231.025 112.969 236.311 115.753 239.814C119.945 245.077 129.442 254.038 135.347 251.51C136.712 250.722 137.841 249.626 138.632 248.322C139.423 247.018 139.849 245.549 139.872 244.051C139.972 241.913 139.329 239.803 138.038 238.037C139.868 237.775 141.587 237.057 143.017 235.958C144.216 234.917 145.172 233.656 145.827 232.254C146.481 230.852 146.818 229.339 146.819 227.81C146.913 225.438 146.462 223.075 145.495 220.881C144.186 217.65 142.365 214.621 140.093 211.897C138.358 209.569 136.741 207.699 135.502 206.338C135.983 206.446 141.226 207.591 144.506 204.532C146.142 202.793 146.978 200.521 146.833 198.209C146.887 195.947 146.296 193.562 141.877 186.454C140.035 183.487 139.946 183.58 137.369 179.623C134.517 175.244 129.487 167.271 126.937 162.639C126.759 162.317 126.214 161.441 125.136 159.694C124.148 157.567 122.465 155.787 120.329 154.609Z" fill="#FFD997" fill-opacity="0.93"/>
<path d="M155.532 89.3207C155.532 91.014 156.252 92.6379 157.533 93.8352C158.814 95.0325 160.552 95.7051 162.363 95.7051C164.175 95.7051 165.912 95.0325 167.193 93.8352C168.475 92.6379 169.194 91.014 169.194 89.3207C169.194 87.6274 168.475 86.0035 167.193 84.8062C165.912 83.6089 164.175 82.9362 162.363 82.9362C160.552 82.9362 158.814 83.6089 157.533 84.8062C156.252 86.0035 155.532 87.6274 155.532 89.3207Z" fill="#92070F"/>
<path d="M155.77 149.178C155.77 150.908 156.505 152.567 157.814 153.791C159.123 155.014 160.898 155.701 162.749 155.701C164.6 155.701 166.376 155.014 167.685 153.791C168.994 152.567 169.729 150.908 169.729 149.178C169.729 147.448 168.994 145.788 167.685 144.565C166.376 143.342 164.6 142.654 162.749 142.654C160.898 142.654 159.123 143.342 157.814 144.565C156.505 145.788 155.77 147.448 155.77 149.178Z" fill="#92070F"/>
<path d="M156.054 209.986C156.054 211.679 156.774 213.303 158.055 214.501C159.336 215.698 161.074 216.371 162.885 216.371C164.697 216.371 166.434 215.698 167.715 214.501C168.997 213.303 169.716 211.679 169.716 209.986C169.716 208.293 168.997 206.669 167.715 205.472C166.434 204.274 164.697 203.602 162.885 203.602C161.074 203.602 159.336 204.274 158.055 205.472C156.774 206.669 156.054 208.293 156.054 209.986Z" fill="#92070F"/>
<path d="M43.3521 39.6944C43.3521 40.5175 43.7019 41.3069 44.3246 41.8889C44.9473 42.4709 45.7919 42.7979 46.6726 42.7979C47.5532 42.7979 48.3978 42.4709 49.0205 41.8889C49.6433 41.3069 49.9931 40.5175 49.9931 39.6944C49.9931 38.8713 49.6433 38.082 49.0205 37.5C48.3978 36.918 47.5532 36.591 46.6726 36.591C45.7919 36.591 44.9473 36.918 44.3246 37.5C43.7019 38.082 43.3521 38.8713 43.3521 39.6944Z" fill="#FFD997" fill-opacity="0.93"/>
<path d="M54.0332 35.0219C54.0332 35.845 54.383 36.6343 55.0058 37.2163C55.6285 37.7984 56.4731 38.1253 57.3537 38.1253C58.2344 38.1253 59.079 37.7984 59.7017 37.2163C60.3244 36.6343 60.6742 35.845 60.6742 35.0219C60.6742 34.1988 60.3244 33.4094 59.7017 32.8274C59.079 32.2454 58.2344 31.9184 57.3537 31.9184C56.4731 31.9184 55.6285 32.2454 55.0058 32.8274C54.383 33.4094 54.0332 34.1988 54.0332 35.0219Z" fill="#FFD997" fill-opacity="0.93"/>
<path d="M65.7529 30.3493C65.7529 31.1724 66.1028 31.9618 66.7255 32.5438C67.3482 33.1258 68.1928 33.4528 69.0735 33.4528C69.9541 33.4528 70.7987 33.1258 71.4214 32.5438C72.0441 31.9618 72.394 31.1724 72.394 30.3493C72.394 29.5263 72.0441 28.7369 71.4214 28.1549C70.7987 27.5729 69.9541 27.2459 69.0735 27.2459C68.1928 27.2459 67.3482 27.5729 66.7255 28.1549C66.1028 28.7369 65.7529 29.5263 65.7529 30.3493Z" fill="#FFD997" fill-opacity="0.93"/>
<path d="M26.0322 287.732C26.0322 288.571 26.3888 289.376 27.0235 289.969C27.6583 290.562 28.5191 290.896 29.4168 290.896C30.3144 290.896 31.1753 290.562 31.81 289.969C32.4447 289.376 32.8013 288.571 32.8013 287.732C32.8013 286.893 32.4447 286.089 31.81 285.496C31.1753 284.902 30.3144 284.569 29.4168 284.569C28.5191 284.569 27.6583 284.902 27.0235 285.496C26.3888 286.089 26.0322 286.893 26.0322 287.732Z" fill="#FFD997" fill-opacity="0.93"/>
<path d="M38.5146 287.072C38.5146 287.488 38.6022 287.899 38.7723 288.283C38.9424 288.666 39.1917 289.015 39.506 289.309C39.8202 289.603 40.1933 289.836 40.604 289.995C41.0146 290.154 41.4547 290.235 41.8992 290.235C42.3436 290.235 42.7838 290.154 43.1944 289.995C43.605 289.836 43.9781 289.603 44.2924 289.309C44.6067 289.015 44.856 288.666 45.0261 288.283C45.1962 287.899 45.2837 287.488 45.2837 287.072C45.2837 286.657 45.1962 286.245 45.0261 285.862C44.856 285.478 44.6067 285.129 44.2924 284.835C43.9781 284.542 43.605 284.309 43.1944 284.15C42.7838 283.991 42.3436 283.909 41.8992 283.909C41.4547 283.909 41.0146 283.991 40.604 284.15C40.1933 284.309 39.8202 284.542 39.506 284.835C39.1917 285.129 38.9424 285.478 38.7723 285.862C38.6022 286.245 38.5146 286.657 38.5146 287.072Z" fill="#FFD997" fill-opacity="0.93"/>
<path d="M50.9946 286.078C50.9946 286.917 51.3512 287.722 51.9859 288.315C52.6207 288.908 53.4815 289.241 54.3792 289.241C55.2768 289.241 56.1377 288.908 56.7724 288.315C57.4071 287.722 57.7637 286.917 57.7637 286.078C57.7637 285.239 57.4071 284.435 56.7724 283.841C56.1377 283.248 55.2768 282.915 54.3792 282.915C53.4815 282.915 52.6207 283.248 51.9859 283.841C51.3512 284.435 50.9946 285.239 50.9946 286.078Z" fill="#FFD997" fill-opacity="0.93"/>
<path d="M315.827 79.9659C323.167 71.5066 329.529 62.3446 334.806 52.6333C343.878 55.972 353.426 58.0451 363.144 58.7861C360.232 66.499 355.238 73.3783 348.646 78.7577L344.066 78.8292L342.075 82.1661C333.26 82.5083 324.436 81.7686 315.827 79.9659Z" fill="#FFD997" fill-opacity="0.93"/>
<path d="M375.982 83.1332C373.854 74.2098 369.811 65.7827 364.098 58.3616C363.993 58.1866 363.839 58.0418 363.652 57.9428C363.465 57.8438 363.253 57.7944 363.039 57.8C353.461 57.0365 344.054 54.9689 335.116 51.6626C334.874 51.5729 334.604 51.5723 334.361 51.6607C334.118 51.7491 333.92 51.9201 333.807 52.1393C328.776 61.8006 322.537 70.8706 315.222 79.1593C314.92 79.5028 314.54 79.91 314.976 80.5103C325.854 95.4099 329.003 106.16 329.831 106.861C330.02 107.007 330.255 107.091 330.501 107.099C330.746 107.107 330.987 107.039 331.186 106.905C351.194 95.572 354.884 95.7515 375.394 84.2371C375.621 84.1538 375.806 83.9948 375.915 83.7909C376.024 83.587 376.048 83.3526 375.982 83.1332ZM330.498 103.562C327.12 95.8028 322.942 88.3694 318.022 81.3672C325.373 82.7764 332.874 83.3839 340.375 83.1775C336.576 89.7479 333.276 96.5595 330.498 103.562ZM341.517 81.2167C334.023 81.4845 326.521 80.945 319.16 79.609C327.145 76.1909 355.409 63.4896 361.199 60.7702C358.312 67.2897 353.878 73.1105 348.231 77.7928C346.832 77.7851 345.43 77.8121 344.024 77.8739C343.851 77.8817 343.683 77.9301 343.535 78.0148C343.387 78.0994 343.264 78.2176 343.178 78.3583C342.595 79.2886 342.075 80.2613 341.517 81.2109V81.2167ZM363.406 60.8281C368.079 67.2244 371.504 74.3424 373.525 81.8536C366.325 79.5149 358.797 78.1722 351.182 77.8681C356.508 73.0656 360.673 67.2536 363.398 60.8224L363.406 60.8281ZM335.256 53.7894C343.086 56.5895 351.259 58.4632 359.586 59.3671C354.023 61.9765 327.017 74.1104 319.376 77.3875C325.506 70.0409 330.824 62.1325 335.248 53.7836L335.256 53.7894ZM332.588 103.852C335.93 95.5367 339.977 87.4843 344.689 79.7711C354.144 79.4121 363.588 80.7008 372.538 83.5713C353.872 93.9122 350.36 93.972 332.588 103.852Z" fill="#92070F"/>
<path d="M37.9925 53.2354C34.4502 47.9522 31.8971 42.1434 30.4428 36.0584C30.0984 34.6248 30.2733 33.1248 30.9402 31.7942C31.607 30.4635 32.7279 29.3776 34.1268 28.7071C45.6619 23.1735 57.5458 18.2997 69.7129 14.1124C71.3278 13.5649 73.1 13.5814 74.7029 14.1588C76.3058 14.7362 77.6315 15.8356 78.4355 17.2545C81.0795 21.944 83.3657 26.8024 85.2768 31.7931C85.8183 33.2233 85.8212 34.7834 85.285 36.2153C84.7487 37.6472 83.7056 38.8651 82.328 39.6675C81.0395 40.4112 79.7268 41.1479 78.3901 41.8774L81.1241 48.0766C81.2005 48.2482 81.2223 48.4368 81.1868 48.6197C81.1512 48.8026 81.0599 48.9721 80.9238 49.1076C80.7877 49.2432 80.6126 49.3391 80.4195 49.3839C80.2265 49.4287 80.0237 49.4204 79.8356 49.36L69.9855 46.2199C62.3667 49.9305 54.4952 53.1689 46.4218 55.9143C44.9002 56.4293 43.2362 56.4445 41.7041 55.9576C40.1719 55.4707 38.8628 54.5106 37.9925 53.2354ZM70.4274 15.9401C58.339 20.0995 46.5323 24.9418 35.0726 30.4402C34.0803 30.9149 33.2852 31.6845 32.8123 32.6279C32.3394 33.5713 32.2156 34.6349 32.4603 35.6512C33.8638 41.5201 36.3268 47.1226 39.7436 52.2183C40.3588 53.1232 41.2861 53.8046 42.3721 54.15C43.458 54.4953 44.6375 54.4838 45.7156 54.1175C53.8428 51.3531 61.7632 48.0841 69.4238 44.3324C69.5478 44.2718 69.6837 44.2355 69.8232 44.2255C69.9627 44.2156 70.103 44.2322 70.2354 44.2745L78.3488 46.8607L76.1392 41.8427C76.0451 41.6273 76.0374 41.3875 76.1174 41.1673C76.1975 40.9471 76.36 40.7613 76.5749 40.6441C78.1677 39.7833 79.7234 38.9148 81.2418 38.0386C82.2171 37.4698 82.9559 36.6072 83.3362 35.5932C83.7164 34.5792 83.7156 33.4744 83.3337 32.4609C81.4535 27.5548 79.206 22.7784 76.608 18.1674C76.039 17.1613 75.0998 16.3816 73.9638 15.9723C72.8278 15.5629 71.5717 15.5515 70.4274 15.9401Z" fill="#92070F"/>
<path d="M79.5756 280.856C79.3978 280.045 78.9084 279.324 78.1998 278.828C77.4913 278.331 76.6128 278.095 75.7305 278.164L65.9796 278.914C65.9197 278.482 65.864 278.038 65.802 277.61C65.5318 275.704 64.4962 273.965 62.9052 272.747C61.3142 271.528 59.2868 270.921 57.2343 271.048C57.2343 271.048 32.2272 272.632 23.6389 273.267C22.5751 273.344 21.5381 273.617 20.5873 274.069C19.6365 274.522 18.7907 275.145 18.0983 275.904C17.4059 276.662 16.8806 277.541 16.5525 278.49C16.2243 279.439 16.0999 280.439 16.1863 281.433C16.7154 287.356 17.9674 293.202 19.9177 298.859C20.4688 300.492 21.5976 301.902 23.1188 302.856C24.64 303.811 26.4632 304.254 28.2892 304.112C29.52 304.02 30.759 303.922 32.0062 303.819L32.9665 309.123C33.0014 309.316 33.0986 309.495 33.245 309.635C33.3913 309.776 33.58 309.871 33.7858 309.909C33.9917 309.946 34.2049 309.925 34.3972 309.846C34.5895 309.768 34.7516 309.637 34.8621 309.47L39.0334 303.186C40.2931 303.064 41.5961 302.906 42.8702 302.771L43.7891 307.756C43.9494 308.608 44.4525 309.371 45.1951 309.887C45.9377 310.404 46.8636 310.635 47.7828 310.533C55.4048 309.651 62.5125 308.575 70.3925 307.013L74.6505 310.275C74.7961 310.386 74.9735 310.454 75.1604 310.471C75.3474 310.488 75.5355 310.453 75.7014 310.371C75.8672 310.289 76.0033 310.162 76.0926 310.008C76.1819 309.853 76.2205 309.678 76.2034 309.503L75.8689 305.874L79.5859 305.261C80.4612 305.116 81.2489 304.675 81.7988 304.022C82.3488 303.369 82.6225 302.55 82.5678 301.721C82.0906 294.709 81.0908 287.737 79.5756 280.856ZM38.321 301.314C38.1639 301.329 38.0126 301.377 37.8787 301.456C37.7448 301.534 37.6319 301.64 37.5487 301.766L34.5503 306.286L33.8833 302.619C33.8424 302.394 33.718 302.191 33.5321 302.044C33.3462 301.897 33.1108 301.816 32.8673 301.816C32.5968 301.816 33.1709 301.816 28.1178 302.192C26.7563 302.298 25.397 301.967 24.2632 301.255C23.1294 300.542 22.2888 299.49 21.8795 298.272C19.9734 292.751 18.7519 287.043 18.2389 281.261C18.1768 280.522 18.2714 279.778 18.5171 279.072C18.7629 278.367 19.155 277.713 19.6711 277.15C20.1872 276.586 20.8171 276.123 21.5249 275.787C22.2326 275.451 23.0043 275.248 23.7958 275.191C32.3738 274.558 57.3624 272.976 57.3624 272.976C58.889 272.896 60.392 273.355 61.5745 274.26C62.7571 275.166 63.5331 276.454 63.7494 277.868C64.3235 281.859 64.8418 285.866 65.5356 292.536C65.6831 293.969 65.2407 295.401 64.2984 296.54C63.3562 297.678 61.985 298.439 60.464 298.666C53.3996 299.677 45.5609 300.625 38.321 301.314Z" fill="#92070F"/>
<path d="M303.669 254.789C302.161 249.208 301.149 243.519 300.644 237.782C300.467 235.688 301.158 233.612 302.574 231.981C303.99 230.351 306.023 229.292 308.251 229.024L337.673 225.411C339.882 225.153 342.114 225.685 343.921 226.899C345.728 228.113 346.979 229.92 347.422 231.959C348.438 236.813 349.295 241.908 349.871 246.799C350.11 248.788 349.562 250.789 348.331 252.427C347.101 254.065 345.272 255.225 343.189 255.69C333.002 257.95 323.278 259.635 313.391 260.901C311.249 261.184 309.071 260.716 307.276 259.587C305.481 258.459 304.196 256.75 303.669 254.789ZM302.703 237.626C303.199 243.259 304.193 248.845 305.674 254.326C306.078 255.825 307.061 257.131 308.433 257.994C309.805 258.856 311.471 259.214 313.108 258.998C323.227 257.694 332.806 256.011 342.714 253.812C344.306 253.457 345.704 252.57 346.645 251.318C347.585 250.066 348.004 248.535 347.821 247.015C347.255 242.209 346.41 237.172 345.397 232.33C345.065 230.768 344.11 229.382 342.726 228.453C341.342 227.524 339.632 227.122 337.942 227.327L308.522 230.942C306.819 231.145 305.265 231.952 304.182 233.196C303.099 234.44 302.569 236.026 302.703 237.626Z" fill="#92070F"/>
<path d="M320.611 244.197C320.464 244.198 320.318 244.17 320.183 244.114C320.048 244.058 319.928 243.976 319.83 243.872C319.732 243.769 319.659 243.648 319.616 243.516C319.573 243.384 319.56 243.245 319.579 243.109C319.79 241.571 320.439 240.115 321.459 238.893C322.479 237.67 323.831 236.727 325.375 236.161C325.502 236.114 325.637 236.091 325.773 236.093C325.908 236.095 326.043 236.122 326.167 236.173C326.292 236.223 326.405 236.297 326.499 236.388C326.593 236.479 326.667 236.587 326.717 236.706C326.767 236.824 326.791 236.95 326.788 237.077C326.785 237.204 326.756 237.329 326.701 237.446C326.647 237.562 326.568 237.667 326.47 237.755C326.371 237.843 326.256 237.912 326.129 237.958C324.929 238.398 323.878 239.132 323.086 240.083C322.295 241.034 321.791 242.166 321.629 243.362C321.596 243.592 321.475 243.804 321.288 243.957C321.1 244.111 320.86 244.196 320.611 244.197Z" fill="#92070F"/>
<path d="M314.744 245.664H314.693C314.557 245.658 314.424 245.627 314.302 245.573C314.179 245.518 314.069 245.442 313.978 245.348C313.887 245.254 313.816 245.145 313.771 245.025C313.725 244.906 313.705 244.779 313.712 244.653C313.856 241.687 314.935 238.828 316.812 236.433C318.69 234.038 321.282 232.215 324.264 231.193C324.391 231.149 324.526 231.129 324.662 231.134C324.798 231.14 324.931 231.17 325.054 231.223C325.177 231.276 325.288 231.352 325.379 231.445C325.471 231.538 325.543 231.647 325.59 231.766C325.636 231.885 325.658 232.012 325.652 232.138C325.647 232.265 325.614 232.389 325.557 232.504C325.501 232.619 325.42 232.723 325.32 232.809C325.22 232.895 325.104 232.961 324.976 233.005C322.374 233.895 320.112 235.485 318.474 237.575C316.837 239.664 315.898 242.16 315.775 244.747C315.761 244.994 315.647 245.227 315.455 245.398C315.264 245.569 315.009 245.664 314.744 245.664Z" fill="#92070F"/>
<path d="M53.9074 142.06C53.6524 142.061 53.4059 141.974 53.2153 141.816C53.0247 141.658 52.9034 141.439 52.8749 141.203L51.9745 133.624C51.9444 133.369 52.0237 133.114 52.1948 132.914C52.366 132.714 52.6151 132.586 52.8873 132.558C53.1595 132.53 53.4325 132.604 53.6462 132.764C53.86 132.924 53.997 133.157 54.0271 133.411L54.9275 140.987C54.9437 141.121 54.9295 141.257 54.8857 141.386C54.8419 141.515 54.7695 141.634 54.6733 141.736C54.5771 141.837 54.4592 141.918 54.3272 141.974C54.1953 142.03 54.0522 142.059 53.9074 142.06Z" fill="#92070F"/>
<path d="M56.5918 159.463C56.3496 159.462 56.1153 159.382 55.93 159.236C55.7446 159.09 55.62 158.888 55.5779 158.666L53.7028 148.767C53.6729 148.639 53.6708 148.508 53.6967 148.38C53.7225 148.252 53.7758 148.13 53.8533 148.022C53.9308 147.914 54.0309 147.822 54.1476 147.751C54.2643 147.68 54.3952 147.631 54.5324 147.609C54.6696 147.586 54.8103 147.59 54.9459 147.619C55.0816 147.649 55.2094 147.704 55.3217 147.781C55.4341 147.858 55.5286 147.955 55.5996 148.067C55.6705 148.179 55.7166 148.304 55.7348 148.433L57.6098 158.332C57.6358 158.47 57.6289 158.613 57.5896 158.749C57.5504 158.885 57.4798 159.011 57.3828 159.119C57.2858 159.227 57.1647 159.313 57.028 159.373C56.8914 159.432 56.7425 159.463 56.5918 159.463Z" fill="#92070F"/>
<path d="M44.1405 149.143C43.8957 149.144 43.6586 149.063 43.4714 148.916C43.2842 148.769 43.159 148.564 43.1184 148.338C43.0777 148.113 43.1241 147.881 43.2493 147.684C43.3744 147.488 43.5703 147.339 43.8018 147.265L50.6865 145.024C50.9453 144.94 51.2293 144.955 51.476 145.067C51.7226 145.178 51.9118 145.377 52.0019 145.619C52.092 145.861 52.0756 146.126 51.9564 146.357C51.8371 146.587 51.6247 146.764 51.3659 146.848C49.0138 147.76 46.6001 148.527 44.1405 149.143Z" fill="#92070F"/>
<path d="M58.2537 144.793C58.0044 144.793 57.7635 144.709 57.5754 144.556C57.3872 144.403 57.2646 144.192 57.2301 143.961C57.1957 143.73 57.2517 143.496 57.3878 143.301C57.5239 143.105 57.731 142.963 57.9708 142.899L68.4775 140.097C68.6095 140.057 68.7489 140.042 68.8872 140.053C69.0255 140.064 69.16 140.102 69.2825 140.162C69.4051 140.223 69.5133 140.307 69.6006 140.408C69.6879 140.509 69.7525 140.625 69.7905 140.75C69.8286 140.875 69.8394 141.005 69.8221 141.134C69.8049 141.263 69.7601 141.387 69.6903 141.499C69.6206 141.611 69.5273 141.709 69.4162 141.787C69.305 141.865 69.1782 141.921 69.0433 141.952C57.6404 144.982 58.4747 144.793 58.2537 144.793Z" fill="#92070F"/>
<path d="M66.8223 131.864C64.9346 131.786 63.1569 131.012 61.8786 129.712C61.1547 128.964 60.6034 128.086 60.2591 127.13C59.9148 126.175 59.785 125.164 59.8777 124.159C60.4621 117.887 69.1412 119.95 71.0059 124.647C72.311 127.971 70.6342 131.864 66.8223 131.864ZM62.7996 122.486C61.5895 123.323 61.476 126.514 63.382 128.388C64.3979 129.403 66.591 130.488 68.0922 129.611C68.7104 129.078 69.1363 128.379 69.3112 127.609C69.4861 126.84 69.4015 126.039 69.069 125.317C68.0509 122.754 64.1997 121.511 62.7996 122.486Z" fill="#92070F"/>
<path d="M306.323 27.6166C305.059 27.6244 303.843 27.1665 302.939 26.342C302.034 25.5175 301.514 24.393 301.49 23.2124C301.396 22.2839 301.504 21.3474 301.807 20.4588C302.11 19.5703 302.602 18.7482 303.254 18.0419C305.689 15.5155 310.601 15.0099 312.831 17.5227C313.555 18.549 313.92 19.7596 313.877 20.9879C313.834 22.2162 313.385 23.4019 312.592 24.3819C311.885 25.3365 310.951 26.1252 309.863 26.6864C308.775 27.2475 307.564 27.5659 306.323 27.6166ZM304.695 25.2215C306.455 26.449 309.604 25.0748 310.89 23.3069C311.422 22.6648 311.739 21.891 311.804 21.0815C311.868 20.2721 311.677 19.4627 311.254 18.7541C309.994 17.3413 306.597 17.4764 304.796 19.3331C303.225 20.9581 303.016 24.0461 304.695 25.2215Z" fill="#92070F"/>
<path d="M362.509 299.499C358.249 299.499 356.619 294.528 358.73 291.156C360.423 288.454 364.652 287.009 367.293 288.83C368.349 289.759 369.023 291.005 369.197 292.35C369.372 293.696 369.036 295.056 368.247 296.193C367.66 297.147 366.828 297.949 365.826 298.526C364.824 299.103 363.684 299.438 362.509 299.499ZM361.385 297.319C363.017 298.135 365.456 296.863 366.459 295.23C366.971 294.494 367.21 293.62 367.139 292.745C367.069 291.869 366.693 291.039 366.069 290.382C364.481 289.292 361.606 290.382 360.51 292.133C359.496 293.754 359.682 296.467 361.385 297.319Z" fill="#92070F"/>
<path d="M340.943 326.983C340.782 326.983 340.623 326.947 340.48 326.88C340.336 326.812 340.211 326.714 340.116 326.593C340.02 326.472 339.955 326.332 339.928 326.184C339.9 326.036 339.91 325.884 339.956 325.74L345.812 307.575C345.871 307.394 345.986 307.234 346.141 307.114C346.297 306.994 346.486 306.919 346.687 306.898C346.887 306.878 347.09 306.913 347.27 306.999C347.449 307.084 347.598 307.218 347.698 307.382L357.903 324.078C357.988 324.218 358.035 324.376 358.039 324.537C358.043 324.698 358.003 324.858 357.924 325.001C357.844 325.144 357.728 325.266 357.585 325.357C357.442 325.447 357.277 325.502 357.106 325.518C338.715 327.197 341.166 326.983 340.943 326.983ZM347.097 310.281L342.378 324.918L355.319 323.733L347.097 310.281Z" fill="#92070F"/>
<path d="M113.927 172.129C113.786 172.13 113.647 172.103 113.518 172.051C113.389 172 113.273 171.924 113.176 171.829C113.079 171.733 113.005 171.621 112.956 171.498C112.908 171.374 112.887 171.243 112.894 171.112C112.966 169.313 113.677 167.587 114.913 166.207C116.15 164.827 117.843 163.87 119.725 163.487C119.994 163.436 120.273 163.486 120.502 163.628C120.73 163.769 120.89 163.989 120.944 164.24C120.999 164.492 120.945 164.753 120.794 164.966C120.643 165.18 120.407 165.329 120.138 165.38C118.704 165.678 117.417 166.413 116.479 167.469C115.541 168.526 115.005 169.844 114.957 171.216C114.943 171.463 114.828 171.695 114.636 171.865C114.445 172.034 114.191 172.129 113.927 172.129Z" fill="#92070F"/>
<path d="M112.793 205.248C112.727 203.628 113.034 202.014 113.695 200.516C114.355 199.017 115.354 197.669 116.622 196.563C116.822 196.389 117.089 196.296 117.363 196.305C117.637 196.314 117.896 196.425 118.083 196.612C118.269 196.8 118.369 197.049 118.359 197.305C118.349 197.561 118.231 197.803 118.03 197.978C116.977 198.895 116.149 200.014 115.601 201.258C115.053 202.502 114.799 203.842 114.856 205.186C114.861 205.313 114.839 205.439 114.791 205.558C114.744 205.677 114.672 205.786 114.579 205.879C114.487 205.971 114.375 206.046 114.252 206.099C114.129 206.151 113.995 206.181 113.86 206.185C113.724 206.19 113.589 206.169 113.462 206.125C113.335 206.08 113.218 206.013 113.119 205.926C113.02 205.84 112.94 205.736 112.883 205.621C112.827 205.505 112.796 205.381 112.791 205.254L112.793 205.248Z" fill="#92070F"/>
<path d="M229.701 237.047H143.143C142.869 237.047 142.606 236.945 142.413 236.764C142.219 236.583 142.11 236.338 142.11 236.082C142.11 235.826 142.219 235.58 142.413 235.399C142.606 235.218 142.869 235.117 143.143 235.117H229.701C229.975 235.117 230.238 235.218 230.432 235.399C230.625 235.58 230.734 235.826 230.734 236.082C230.734 236.338 230.625 236.583 230.432 236.764C230.238 236.945 229.975 237.047 229.701 237.047Z" fill="#92070F"/>
<path d="M225.331 116.686H148.249C145.627 116.682 143.115 115.707 141.262 113.974C139.409 112.241 138.367 109.891 138.366 107.441V84.1269C138.369 81.677 139.412 79.3283 141.265 77.596C143.119 75.8637 145.632 74.8891 148.253 74.886H225.335C227.955 74.8911 230.466 75.8666 232.318 77.5987C234.169 79.3308 235.211 81.6783 235.214 84.1269V107.441C235.213 109.891 234.171 112.241 232.318 113.974C230.465 115.707 227.953 116.682 225.331 116.686ZM148.249 76.816C146.176 76.8191 144.188 77.5905 142.723 78.9609C141.257 80.3314 140.433 82.1892 140.431 84.1269V107.441C140.432 109.38 141.256 111.238 142.721 112.61C144.187 113.981 146.175 114.753 148.249 114.756H225.331C227.405 114.753 229.393 113.981 230.859 112.61C232.324 111.238 233.148 109.38 233.149 107.441V84.1269C233.147 82.1885 232.322 80.3302 230.856 78.9596C229.389 77.589 227.401 76.8181 225.327 76.816H148.249Z" fill="#92070F"/>
<path d="M224.156 175.505H148.255C145.633 175.5 143.12 174.525 141.266 172.792C139.411 171.059 138.367 168.711 138.362 166.26V142.951C138.367 140.5 139.411 138.151 141.265 136.418C143.119 134.685 145.633 133.709 148.255 133.705H225.325C227.948 133.709 230.461 134.685 232.315 136.418C234.17 138.151 235.214 140.5 235.219 142.951V148.074C235.219 148.33 235.11 148.575 234.916 148.756C234.723 148.937 234.46 149.039 234.186 149.039C233.912 149.039 233.65 148.937 233.456 148.756C233.262 148.575 233.154 148.33 233.154 148.074V142.951C233.152 141.011 232.327 139.151 230.859 137.779C229.391 136.408 227.401 135.636 225.325 135.635H148.255C146.18 135.637 144.191 136.409 142.724 137.781C141.257 139.152 140.433 141.012 140.431 142.951V166.26C140.433 168.2 141.259 170.059 142.726 171.431C144.194 172.802 146.184 173.573 148.259 173.575H224.16C224.434 173.575 224.697 173.676 224.891 173.857C225.084 174.038 225.193 174.284 225.193 174.54C225.193 174.796 225.084 175.041 224.891 175.222C224.697 175.403 224.434 175.505 224.16 175.505H224.156Z" fill="#92070F"/>
<path d="M162.372 77.3875C158.478 77.3875 154.672 78.4666 151.435 80.4884C148.197 82.5101 145.674 85.3837 144.184 88.7458C142.694 92.1078 142.305 95.8073 143.064 99.3763C143.824 102.945 145.699 106.224 148.453 108.797C151.206 111.37 154.714 113.122 158.532 113.832C162.351 114.541 166.309 114.177 169.906 112.784C173.504 111.391 176.578 109.032 178.741 106.007C180.904 102.981 182.058 99.4233 182.057 95.7843C182.051 90.9065 179.975 86.2302 176.285 82.7813C172.594 79.3324 167.591 77.3926 162.372 77.3875ZM175.699 106.531C174.81 103.877 173.038 101.557 170.641 99.9095C168.244 98.262 165.347 97.3726 162.371 97.3706C159.396 97.3687 156.497 98.2544 154.098 99.8987C151.698 101.543 149.923 103.86 149.03 106.513C146.825 104.124 145.401 101.194 144.927 98.0699C144.452 94.9462 144.948 91.761 146.355 88.8931C147.762 86.0252 150.02 83.5953 152.862 81.8925C155.704 80.1897 159.009 79.2856 162.385 79.2878C165.76 79.29 169.064 80.1984 171.903 81.9049C174.743 83.6114 176.998 86.0442 178.4 88.914C179.803 91.7837 180.294 94.9696 179.815 98.0926C179.336 101.216 177.908 104.144 175.699 106.531Z" fill="#92070F"/>
<path d="M162.372 136.206C158.478 136.206 154.672 137.285 151.435 139.307C148.197 141.329 145.674 144.202 144.184 147.564C142.694 150.927 142.305 154.626 143.064 158.195C143.824 161.764 145.699 165.042 148.453 167.615C151.206 170.188 154.714 171.941 158.532 172.65C162.351 173.36 166.309 172.995 169.906 171.603C173.504 170.21 176.578 167.851 178.741 164.825C180.904 161.799 182.058 158.242 182.057 154.603C182.051 149.725 179.975 145.049 176.285 141.6C172.594 138.151 167.591 136.211 162.372 136.206ZM175.664 165.382C174.613 162.9 172.783 160.773 170.414 159.28C168.046 157.787 165.25 156.999 162.394 157.018C159.538 157.037 156.754 157.862 154.409 159.386C152.064 160.91 150.266 163.062 149.253 165.558C146.99 163.197 145.505 160.276 144.975 157.145C144.445 154.015 144.894 150.808 146.266 147.91C147.638 145.011 149.877 142.545 152.712 140.806C155.547 139.068 158.859 138.131 162.25 138.108C165.641 138.086 168.967 138.979 171.829 140.679C174.69 142.38 176.966 144.816 178.382 147.696C179.798 150.576 180.295 153.776 179.813 156.914C179.331 160.051 177.89 162.991 175.664 165.382Z" fill="#92070F"/>
<path d="M162.372 197.928C159.637 197.93 156.932 198.465 154.43 199.498C151.928 200.531 149.684 202.039 147.84 203.928C145.997 205.816 144.594 208.042 143.722 210.465C142.849 212.888 142.526 215.454 142.773 218C142.786 218.126 142.825 218.249 142.889 218.362C142.952 218.474 143.039 218.574 143.144 218.655C143.249 218.736 143.37 218.798 143.5 218.835C143.63 218.873 143.767 218.886 143.902 218.874C144.038 218.862 144.17 218.825 144.29 218.766C144.41 218.706 144.517 218.625 144.604 218.527C144.691 218.429 144.756 218.316 144.796 218.194C144.836 218.073 144.851 217.945 144.838 217.818C144.574 215.159 145.006 212.481 146.097 210.013C147.188 207.545 148.905 205.363 151.1 203.654C153.295 201.944 155.902 200.76 158.696 200.203C161.49 199.646 164.387 199.732 167.138 200.455C169.888 201.178 172.409 202.516 174.482 204.352C176.556 206.189 178.12 208.469 179.041 210.997C179.961 213.525 180.209 216.224 179.764 218.862C179.319 221.499 178.194 223.996 176.486 226.136C175.111 223.757 173.074 221.768 170.591 220.381C168.107 218.993 165.268 218.258 162.374 218.254C159.481 218.249 156.64 218.975 154.151 220.355C151.662 221.734 149.618 223.717 148.235 226.092C148.008 225.804 147.764 225.532 147.555 225.229C147.482 225.122 147.387 225.029 147.276 224.956C147.164 224.883 147.039 224.831 146.906 224.804C146.773 224.777 146.635 224.774 146.501 224.797C146.367 224.819 146.239 224.866 146.125 224.935C146.01 225.004 145.912 225.093 145.834 225.198C145.757 225.302 145.702 225.42 145.674 225.545C145.645 225.669 145.644 225.797 145.668 225.923C145.693 226.048 145.744 226.167 145.819 226.273C147.666 228.957 150.229 231.145 153.255 232.622C156.281 234.1 159.666 234.816 163.078 234.701C166.49 234.586 169.811 233.643 172.715 231.966C175.619 230.288 178.006 227.933 179.642 225.132C181.278 222.331 182.105 219.181 182.044 215.99C181.983 212.8 181.035 209.679 179.292 206.935C177.55 204.191 175.074 201.917 172.108 200.338C169.141 198.759 165.786 197.928 162.372 197.928Z" fill="#92070F"/>
<path d="M234.182 227.275C233.908 227.275 233.645 227.173 233.452 226.992C233.258 226.812 233.149 226.566 233.149 226.31V203.694C233.148 202.092 232.466 200.556 231.254 199.423C230.042 198.29 228.398 197.653 226.684 197.652H146.713C146.439 197.652 146.176 197.55 145.983 197.369C145.789 197.188 145.68 196.942 145.68 196.687C145.68 196.431 145.789 196.185 145.983 196.004C146.176 195.823 146.439 195.722 146.713 195.722H226.682C228.944 195.724 231.112 196.564 232.711 198.059C234.311 199.554 235.21 201.58 235.212 203.694V226.31C235.212 226.566 235.104 226.811 234.911 226.992C234.718 227.173 234.455 227.275 234.182 227.275Z" fill="#92070F"/>
<path d="M223.114 209.826H194.489C193.419 209.826 192.393 209.428 191.636 208.721C190.879 208.014 190.454 207.055 190.454 206.055C190.454 205.054 190.879 204.095 191.636 203.388C192.393 202.681 193.419 202.283 194.489 202.283H223.114C224.184 202.283 225.211 202.681 225.967 203.388C226.724 204.095 227.149 205.054 227.149 206.055C227.149 207.055 226.724 208.014 225.967 208.721C225.211 209.428 224.184 209.826 223.114 209.826ZM194.489 204.213C193.967 204.213 193.466 204.407 193.096 204.753C192.727 205.098 192.519 205.566 192.519 206.055C192.519 206.543 192.727 207.011 193.096 207.357C193.466 207.702 193.967 207.896 194.489 207.896H223.114C223.637 207.896 224.138 207.702 224.507 207.357C224.877 207.011 225.084 206.543 225.084 206.055C225.084 205.566 224.877 205.098 224.507 204.753C224.138 204.407 223.637 204.213 223.114 204.213H194.489Z" fill="#92070F"/>
<path d="M223.114 219.347H194.489C193.435 219.324 192.431 218.917 191.694 218.212C190.956 217.507 190.543 216.56 190.543 215.574C190.543 214.589 190.956 213.642 191.694 212.937C192.431 212.232 193.435 211.825 194.489 211.802H223.114C224.169 211.825 225.172 212.232 225.91 212.937C226.647 213.642 227.06 214.589 227.06 215.574C227.06 216.56 226.647 217.507 225.91 218.212C225.172 218.917 224.169 219.324 223.114 219.347ZM194.489 213.732C193.978 213.748 193.492 213.949 193.136 214.292C192.78 214.636 192.581 215.096 192.581 215.574C192.581 216.053 192.78 216.513 193.136 216.857C193.492 217.2 193.978 217.401 194.489 217.417H223.114C223.626 217.401 224.111 217.2 224.467 216.857C224.823 216.513 225.023 216.053 225.023 215.574C225.023 215.096 224.823 214.636 224.467 214.292C224.111 213.949 223.626 213.748 223.114 213.732H194.489Z" fill="#92070F"/>
<path d="M223.114 228.863H194.489C193.959 228.863 193.435 228.766 192.945 228.576C192.455 228.387 192.011 228.109 191.636 227.759C191.261 227.409 190.964 226.993 190.761 226.535C190.558 226.078 190.454 225.587 190.454 225.092C190.454 224.597 190.558 224.107 190.761 223.649C190.964 223.191 191.261 222.776 191.636 222.426C192.011 222.075 192.455 221.798 192.945 221.608C193.435 221.419 193.959 221.321 194.489 221.321H223.114C224.184 221.321 225.211 221.718 225.967 222.426C226.724 223.133 227.149 224.092 227.149 225.092C227.149 226.092 226.724 227.052 225.967 227.759C225.211 228.466 224.184 228.863 223.114 228.863ZM194.489 223.251C193.967 223.251 193.466 223.445 193.096 223.79C192.727 224.136 192.519 224.604 192.519 225.092C192.519 225.581 192.727 226.049 193.096 226.394C193.466 226.739 193.967 226.933 194.489 226.933H223.114C223.637 226.933 224.138 226.739 224.507 226.394C224.877 226.049 225.084 225.581 225.084 225.092C225.084 224.604 224.877 224.136 224.507 223.79C224.138 223.445 223.637 223.251 223.114 223.251H194.489Z" fill="#92070F"/>
<path d="M216.011 148.861H194.489C193.419 148.86 192.394 148.462 191.637 147.755C190.881 147.048 190.455 146.09 190.454 145.09C190.455 144.598 190.561 144.112 190.765 143.659C190.97 143.206 191.268 142.795 191.644 142.451C192.019 142.107 192.464 141.836 192.952 141.654C193.441 141.472 193.963 141.382 194.489 141.39H223.093C223.376 141.409 223.641 141.528 223.833 141.723C224.025 141.918 224.13 142.175 224.126 142.44C224.123 142.562 224.094 142.682 224.04 142.794C223.986 142.905 223.908 143.005 223.812 143.087C223.715 143.169 223.602 143.232 223.478 143.273C223.355 143.313 223.224 143.329 223.093 143.32H194.483C194.229 143.312 193.977 143.352 193.74 143.436C193.503 143.521 193.286 143.65 193.103 143.814C192.92 143.978 192.774 144.175 192.674 144.393C192.573 144.611 192.521 144.845 192.519 145.082C192.519 145.571 192.727 146.039 193.096 146.384C193.466 146.729 193.967 146.923 194.489 146.923H216.011C216.284 146.923 216.547 147.025 216.741 147.206C216.934 147.387 217.043 147.633 217.043 147.888C217.043 148.144 216.934 148.39 216.741 148.571C216.547 148.752 216.284 148.853 216.011 148.853V148.861Z" fill="#92070F"/>
<path d="M215.217 158.374H194.489C193.952 158.385 193.418 158.296 192.918 158.112C192.418 157.928 191.963 157.652 191.578 157.301C191.194 156.95 190.889 156.531 190.681 156.068C190.472 155.605 190.365 155.108 190.365 154.606C190.365 154.104 190.472 153.606 190.681 153.144C190.889 152.681 191.194 152.261 191.578 151.91C191.963 151.559 192.418 151.284 192.918 151.099C193.418 150.915 193.952 150.826 194.489 150.837H214.751C215.025 150.837 215.287 150.939 215.481 151.12C215.674 151.301 215.783 151.546 215.783 151.802C215.783 152.058 215.674 152.304 215.481 152.485C215.287 152.666 215.025 152.767 214.751 152.767H194.489C194.225 152.759 193.963 152.801 193.716 152.89C193.47 152.979 193.246 153.113 193.056 153.284C192.867 153.456 192.716 153.661 192.613 153.888C192.51 154.115 192.457 154.359 192.457 154.606C192.457 154.852 192.51 155.096 192.613 155.323C192.716 155.55 192.867 155.756 193.056 155.927C193.246 156.099 193.47 156.233 193.716 156.322C193.963 156.41 194.225 156.452 194.489 156.444H215.217C215.491 156.444 215.754 156.546 215.948 156.727C216.141 156.908 216.25 157.153 216.25 157.409C216.25 157.665 216.141 157.91 215.948 158.091C215.754 158.272 215.491 158.374 215.217 158.374Z" fill="#92070F"/>
<path d="M218.84 167.893H194.473C193.418 167.871 192.415 167.463 191.677 166.758C190.94 166.053 190.527 165.107 190.527 164.121C190.527 163.135 190.94 162.188 191.677 161.483C192.415 160.778 193.418 160.371 194.473 160.349H216.372C216.646 160.349 216.908 160.45 217.102 160.631C217.296 160.812 217.404 161.058 217.404 161.314C217.404 161.569 217.296 161.815 217.102 161.996C216.908 162.177 216.646 162.279 216.372 162.279H194.477C193.965 162.294 193.48 162.495 193.124 162.839C192.768 163.182 192.568 163.642 192.568 164.121C192.568 164.599 192.768 165.059 193.124 165.403C193.48 165.747 193.965 165.947 194.477 165.963H218.844C219.118 165.963 219.38 166.065 219.574 166.246C219.767 166.426 219.876 166.672 219.876 166.928C219.876 167.184 219.767 167.429 219.574 167.61C219.38 167.791 219.118 167.893 218.844 167.893H218.84Z" fill="#92070F"/>
<path d="M223.114 90.0385H194.489C193.419 90.0385 192.393 89.6412 191.636 88.9339C190.879 88.2267 190.454 87.2675 190.454 86.2673C190.454 85.2671 190.879 84.3079 191.636 83.6006C192.393 82.8934 193.419 82.4961 194.489 82.4961H223.114C224.184 82.4961 225.211 82.8934 225.967 83.6006C226.724 84.3079 227.149 85.2671 227.149 86.2673C227.149 87.2675 226.724 88.2267 225.967 88.9339C225.211 89.6412 224.184 90.0385 223.114 90.0385ZM194.489 84.4261C193.967 84.4261 193.466 84.62 193.096 84.9653C192.727 85.3106 192.519 85.779 192.519 86.2673C192.519 86.7556 192.727 87.2239 193.096 87.5692C193.466 87.9145 193.967 88.1085 194.489 88.1085H223.114C223.637 88.1085 224.138 87.9145 224.507 87.5692C224.877 87.2239 225.084 86.7556 225.084 86.2673C225.084 85.779 224.877 85.3106 224.507 84.9653C224.138 84.62 223.637 84.4261 223.114 84.4261H194.489Z" fill="#92070F"/>
<path d="M223.114 99.5554H194.489C193.419 99.5554 192.393 99.1581 191.636 98.4508C190.879 97.7436 190.454 96.7844 190.454 95.7842C190.454 94.784 190.879 93.8247 191.636 93.1175C192.393 92.4103 193.419 92.0129 194.489 92.0129H223.114C224.184 92.0129 225.211 92.4103 225.967 93.1175C226.724 93.8247 227.149 94.784 227.149 95.7842C227.149 96.7844 226.724 97.7436 225.967 98.4508C225.211 99.1581 224.184 99.5554 223.114 99.5554ZM194.489 93.9429C193.967 93.9429 193.466 94.1369 193.096 94.4822C192.727 94.8275 192.519 95.2958 192.519 95.7842C192.519 96.2725 192.727 96.7408 193.096 97.0861C193.466 97.4314 193.967 97.6254 194.489 97.6254H223.114C223.637 97.6254 224.138 97.4314 224.507 97.0861C224.877 96.7408 225.084 96.2725 225.084 95.7842C225.084 95.2958 224.877 94.8275 224.507 94.4822C224.138 94.1369 223.637 93.9429 223.114 93.9429H194.489Z" fill="#92070F"/>
<path d="M223.114 109.074H194.489C193.419 109.074 192.393 108.677 191.636 107.969C190.879 107.262 190.454 106.303 190.454 105.303C190.454 104.303 190.879 103.343 191.636 102.636C192.393 101.929 193.419 101.532 194.489 101.532H223.114C224.184 101.532 225.211 101.929 225.967 102.636C226.724 103.343 227.149 104.303 227.149 105.303C227.149 106.303 226.724 107.262 225.967 107.969C225.211 108.677 224.184 109.074 223.114 109.074ZM194.489 103.462C193.967 103.462 193.466 103.656 193.096 104.001C192.727 104.346 192.519 104.815 192.519 105.303C192.519 105.791 192.727 106.259 193.096 106.605C193.466 106.95 193.967 107.144 194.489 107.144H223.114C223.637 107.144 224.138 106.95 224.507 106.605C224.877 106.259 225.084 105.791 225.084 105.303C225.084 104.815 224.877 104.346 224.507 104.001C224.138 103.656 223.637 103.462 223.114 103.462H194.489Z" fill="#92070F"/>
<path d="M148.862 288.419C148.701 288.419 148.543 288.384 148.4 288.317C128.361 278.992 111.514 264.612 99.7653 246.804C88.0163 228.995 81.8336 208.47 81.9168 187.548C82.131 176.201 83.9524 164.931 87.3333 154.032C89.8589 146.457 93.2362 139.155 97.4085 132.246C97.4752 132.135 97.5645 132.038 97.6713 131.96C97.7781 131.882 97.9004 131.824 98.0311 131.791C98.1618 131.757 98.2983 131.747 98.433 131.762C98.5676 131.778 98.6977 131.818 98.8158 131.88C98.9339 131.942 99.0377 132.026 99.1213 132.126C99.2048 132.226 99.2666 132.34 99.3029 132.462C99.3392 132.584 99.3495 132.712 99.333 132.838C99.3166 132.963 99.2738 133.085 99.2071 133.195C95.1033 139.985 91.7808 147.163 89.2951 154.607C85.9728 165.319 84.1827 176.396 83.9715 187.548C83.8899 208.111 89.9668 228.286 101.515 245.789C113.063 263.292 129.621 277.426 149.316 286.592C149.524 286.689 149.69 286.848 149.788 287.044C149.887 287.24 149.912 287.462 149.86 287.673C149.807 287.884 149.68 288.072 149.499 288.208C149.318 288.343 149.094 288.418 148.862 288.419Z" fill="#92070F"/>
<path d="M274.702 277.528C274.485 277.528 274.274 277.465 274.098 277.346C273.922 277.228 273.791 277.061 273.722 276.868C273.654 276.676 273.652 276.469 273.716 276.276C273.781 276.082 273.909 275.913 274.082 275.791C278.614 272.582 282.893 269.072 286.885 265.288C287.081 265.122 287.336 265.032 287.6 265.037C287.864 265.042 288.116 265.141 288.304 265.314C288.493 265.487 288.603 265.72 288.612 265.967C288.622 266.213 288.53 266.454 288.356 266.639C284.29 270.487 279.934 274.057 275.321 277.322C275.145 277.452 274.927 277.524 274.702 277.528Z" fill="#92070F"/>
<path d="M319.856 209.921C319.703 209.921 319.553 209.889 319.415 209.829C319.278 209.768 319.156 209.679 319.059 209.57C318.962 209.46 318.892 209.332 318.855 209.194C318.817 209.056 318.813 208.912 318.842 208.772C320.286 201.781 321.012 194.678 321.01 187.558C320.798 176.41 319.008 165.337 315.686 154.628C307.628 130.618 291.113 109.864 268.827 95.7437C268.711 95.6745 268.61 95.5841 268.532 95.478C268.453 95.3718 268.398 95.252 268.37 95.1257C268.342 94.9993 268.341 94.869 268.368 94.7424C268.395 94.6158 268.449 94.4955 268.526 94.3886C268.603 94.2817 268.703 94.1904 268.819 94.1201C268.934 94.0498 269.064 94.0019 269.2 93.9792C269.336 93.9565 269.475 93.9596 269.61 93.9882C269.745 94.0168 269.872 94.0703 269.984 94.1456C292.656 108.512 309.459 129.626 317.658 154.053C321.039 164.949 322.86 176.216 323.075 187.56C323.077 194.802 322.338 202.028 320.867 209.139C320.822 209.359 320.696 209.557 320.512 209.699C320.327 209.842 320.095 209.92 319.856 209.921Z" fill="#92070F"/>
<path d="M374.069 133.224C373.858 133.224 373.652 133.164 373.479 133.051C373.306 132.938 373.174 132.778 373.1 132.593L368.529 120.98C368.482 120.861 368.46 120.735 368.466 120.608C368.471 120.482 368.503 120.357 368.56 120.242C368.617 120.127 368.697 120.023 368.797 119.937C368.897 119.851 369.014 119.784 369.141 119.74C369.268 119.697 369.403 119.677 369.539 119.682C369.675 119.687 369.808 119.717 369.931 119.77C370.054 119.823 370.165 119.898 370.257 119.991C370.349 120.084 370.421 120.194 370.468 120.313L375.037 131.925C375.095 132.071 375.114 132.228 375.093 132.382C375.072 132.536 375.011 132.684 374.916 132.811C374.821 132.939 374.694 133.043 374.547 133.115C374.399 133.187 374.235 133.224 374.069 133.224Z" fill="#92070F"/>
<path d="M181.24 358C180.968 357.969 180.721 357.839 180.552 357.637C180.383 357.436 180.307 357.181 180.339 356.927C180.356 356.801 180.398 356.679 180.464 356.569C180.531 356.458 180.62 356.361 180.727 356.283C180.833 356.205 180.955 356.147 181.086 356.112C181.216 356.078 181.353 356.068 181.488 356.083C190.122 357.097 198.829 357.462 207.525 357.176C207.796 357.176 208.056 357.273 208.254 357.446C208.451 357.619 208.571 357.856 208.589 358.108C208.593 358.235 208.571 358.361 208.524 358.48C208.476 358.599 208.404 358.707 208.311 358.8C208.219 358.893 208.107 358.967 207.984 359.02C207.86 359.072 207.727 359.102 207.591 359.106C198.79 359.396 189.978 359.026 181.24 358ZM232.605 355.761C232.581 355.636 232.584 355.508 232.613 355.384C232.642 355.261 232.697 355.143 232.775 355.039C232.852 354.935 232.951 354.847 233.065 354.779C233.18 354.71 233.307 354.664 233.441 354.642C242.002 353.218 250.443 351.218 258.696 348.659C258.825 348.619 258.96 348.603 259.096 348.612C259.231 348.621 259.363 348.655 259.484 348.711C259.606 348.768 259.714 348.847 259.803 348.942C259.891 349.038 259.959 349.149 260.002 349.27C260.045 349.39 260.062 349.517 260.052 349.643C260.043 349.77 260.006 349.893 259.946 350.006C259.885 350.12 259.801 350.221 259.699 350.304C259.596 350.387 259.477 350.45 259.348 350.49C250.999 353.079 242.461 355.102 233.8 356.543C233.531 356.587 233.254 356.53 233.029 356.383C232.805 356.237 232.652 356.013 232.605 355.761ZM155.545 353.621C154.969 353.621 148.371 351.92 146.858 351.498C146.651 351.451 147.622 351.884 130.957 344.143C130.711 344.029 130.523 343.828 130.435 343.584C130.346 343.341 130.365 343.075 130.487 342.845C130.609 342.614 130.824 342.439 131.084 342.356C131.345 342.274 131.63 342.292 131.876 342.405L147.483 349.653C148.344 349.892 151.343 350.71 155.791 351.714C156.036 351.769 156.252 351.907 156.396 352.101C156.54 352.295 156.603 352.531 156.573 352.766C156.544 353 156.423 353.216 156.234 353.373C156.045 353.53 155.802 353.617 155.549 353.617L155.545 353.621ZM283.232 341.157C283 341.157 282.774 341.083 282.592 340.949C282.409 340.814 282.281 340.625 282.227 340.414C282.174 340.202 282.198 339.98 282.297 339.783C282.395 339.587 282.562 339.426 282.77 339.329C290.537 335.683 298.016 331.523 305.148 326.879C305.259 326.803 305.385 326.749 305.519 326.719C305.653 326.69 305.791 326.686 305.927 326.707C306.062 326.728 306.192 326.774 306.308 326.843C306.424 326.912 306.524 327.001 306.603 327.107C306.681 327.212 306.737 327.331 306.765 327.456C306.794 327.582 306.796 327.711 306.771 327.838C306.745 327.964 306.693 328.084 306.617 328.191C306.541 328.298 306.443 328.39 306.329 328.461C299.117 333.16 291.552 337.369 283.695 341.054C283.551 341.122 283.393 341.157 283.232 341.157ZM326.11 313.232C325.903 313.231 325.701 313.173 325.53 313.064C325.359 312.955 325.227 312.801 325.151 312.621C325.075 312.441 325.059 312.243 325.104 312.055C325.15 311.866 325.255 311.694 325.406 311.562C331.758 306.009 337.68 300.041 343.125 293.702C343.297 293.502 343.546 293.374 343.818 293.346C344.09 293.317 344.363 293.391 344.577 293.551C344.791 293.711 344.928 293.944 344.958 294.199C344.989 294.453 344.909 294.708 344.738 294.908C339.23 301.32 333.24 307.357 326.814 312.973C326.623 313.139 326.371 313.232 326.11 313.232ZM358.836 275.112C358.654 275.112 358.475 275.067 358.317 274.982C358.16 274.897 358.029 274.774 357.939 274.626C357.849 274.478 357.802 274.311 357.803 274.141C357.804 273.97 357.853 273.804 357.946 273.657C362.366 266.653 366.241 259.361 369.541 251.836C369.592 251.719 369.668 251.612 369.763 251.522C369.859 251.432 369.973 251.361 370.098 251.312C370.223 251.263 370.357 251.237 370.493 251.237C370.628 251.236 370.763 251.261 370.888 251.309C371.014 251.357 371.128 251.427 371.224 251.517C371.321 251.606 371.397 251.712 371.45 251.829C371.502 251.946 371.53 252.071 371.53 252.198C371.531 252.325 371.505 252.451 371.453 252.568C368.118 260.177 364.202 267.553 359.734 274.637C359.642 274.783 359.511 274.904 359.353 274.987C359.195 275.071 359.017 275.114 358.836 275.112ZM378.66 229.877C378.503 229.877 378.348 229.844 378.207 229.78C378.066 229.716 377.942 229.622 377.845 229.507C377.748 229.391 377.681 229.256 377.648 229.113C377.616 228.969 377.618 228.821 377.656 228.678C379.754 220.79 381.243 212.771 382.111 204.683C382.138 204.427 382.273 204.191 382.486 204.029C382.699 203.866 382.973 203.789 383.246 203.814C383.52 203.84 383.772 203.966 383.946 204.165C384.12 204.364 384.203 204.62 384.176 204.876C383.298 213.056 381.793 221.167 379.672 229.145C379.615 229.357 379.484 229.544 379.3 229.676C379.116 229.809 378.889 229.88 378.656 229.877H378.66ZM382.825 180.343C382.352 172.222 381.303 164.139 379.684 156.147C379.634 155.895 379.692 155.635 379.847 155.424C380.002 155.213 380.24 155.068 380.509 155.021C380.778 154.974 381.057 155.029 381.283 155.173C381.508 155.318 381.664 155.54 381.714 155.792C383.349 163.868 384.409 172.037 384.888 180.245C384.902 180.501 384.807 180.752 384.623 180.942C384.439 181.132 384.182 181.246 383.908 181.259C383.634 181.272 383.366 181.183 383.163 181.011C382.959 180.84 382.837 180.599 382.823 180.343H382.825Z" fill="#92070F"/>
<path d="M107.876 333.348C107.535 333.348 108.58 333.769 95.5605 327.737C95.4349 327.683 95.3221 327.606 95.2289 327.511C95.1357 327.415 95.0639 327.303 95.0179 327.182C94.9719 327.06 94.9525 326.931 94.9609 326.802C94.9693 326.673 95.0054 326.546 95.067 326.431C95.1285 326.315 95.2143 326.212 95.3193 326.128C95.4242 326.044 95.5462 325.98 95.6779 325.941C95.8097 325.902 95.9485 325.888 96.0862 325.899C96.2239 325.911 96.3576 325.949 96.4794 326.01L108.337 331.52C108.544 331.617 108.711 331.777 108.809 331.974C108.908 332.171 108.932 332.393 108.879 332.604C108.826 332.815 108.698 333.004 108.516 333.139C108.334 333.274 108.109 333.347 107.876 333.348Z" fill="#92070F"/>
<path d="M109.225 40.3371C108.995 40.3382 108.771 40.2676 108.589 40.1364C108.407 40.0053 108.277 39.821 108.22 39.6129C108.162 39.4048 108.181 39.1848 108.272 38.9877C108.364 38.7906 108.523 38.6277 108.725 38.5248C112.558 36.5562 116.552 34.6648 120.593 32.9047C120.717 32.8446 120.852 32.8086 120.991 32.7988C121.13 32.7891 121.27 32.8057 121.402 32.8477C121.534 32.8897 121.655 32.9563 121.759 33.0434C121.862 33.1305 121.946 33.2363 122.005 33.3545C122.064 33.4726 122.096 33.6007 122.101 33.7309C122.105 33.8611 122.081 33.9908 122.03 34.1122C121.98 34.2335 121.903 34.344 121.806 34.437C121.708 34.53 121.591 34.6036 121.462 34.6532C117.464 36.3902 113.514 38.2681 109.721 40.2174C109.569 40.2956 109.398 40.3367 109.225 40.3371Z" fill="#92070F"/>
<path d="M269.76 30.2434C261.901 27.2572 253.828 24.7917 245.599 22.865C245.468 22.8342 245.344 22.7795 245.235 22.704C245.126 22.6284 245.034 22.5335 244.964 22.4248C244.894 22.316 244.848 22.1954 244.828 22.0699C244.808 21.9445 244.815 21.8166 244.848 21.6935C244.914 21.445 245.084 21.2314 245.319 21.0996C245.435 21.0344 245.564 20.9912 245.698 20.9726C245.832 20.9539 245.969 20.9602 246.101 20.991C254.423 22.9415 262.588 25.4367 270.536 28.4582C270.668 28.5017 270.789 28.5697 270.892 28.6581C270.994 28.7466 271.077 28.8536 271.134 28.9727C271.191 29.0918 271.222 29.2206 271.225 29.3511C271.227 29.4817 271.201 29.6113 271.148 29.7323C271.096 29.8532 271.017 29.9628 270.918 30.0546C270.818 30.1464 270.7 30.2183 270.57 30.2661C270.44 30.3139 270.301 30.3365 270.161 30.3326C270.022 30.3287 269.884 30.2984 269.758 30.2434H269.76ZM143.881 25.4338C143.842 25.3126 143.828 25.1851 143.841 25.0589C143.854 24.9326 143.893 24.8099 143.957 24.6979C144.02 24.5858 144.107 24.4866 144.212 24.4059C144.316 24.3252 144.437 24.2646 144.567 24.2276C152.745 21.8179 161.084 19.9178 169.531 18.5399C169.664 18.5158 169.802 18.5171 169.935 18.5438C170.068 18.5704 170.194 18.6218 170.306 18.6949C170.417 18.7681 170.511 18.8614 170.583 18.9694C170.655 19.0774 170.703 19.1978 170.724 19.3235C170.771 19.5753 170.709 19.8341 170.552 20.0433C170.395 20.2524 170.155 20.3947 169.886 20.439C161.529 21.8175 153.277 23.7 145.18 26.0746C145.05 26.113 144.913 26.1269 144.777 26.1154C144.641 26.1039 144.509 26.0673 144.388 26.0077C144.267 25.9481 144.16 25.8667 144.073 25.7682C143.986 25.6697 143.921 25.5561 143.881 25.4338ZM220.679 18.7329C212.208 17.8898 203.682 17.6234 195.17 17.9358C194.9 17.9338 194.64 17.8378 194.442 17.6665C194.244 17.4951 194.121 17.2608 194.098 17.0094C194.093 16.8825 194.114 16.7558 194.161 16.6366C194.208 16.5174 194.28 16.4081 194.372 16.3149C194.464 16.2216 194.575 16.1463 194.699 16.0933C194.822 16.0402 194.956 16.0105 195.091 16.0058C203.666 15.6975 212.253 15.9658 220.786 16.8087C220.922 16.8153 221.055 16.8468 221.177 16.9013C221.3 16.9559 221.41 17.0325 221.501 17.1268C221.591 17.2211 221.662 17.3311 221.707 17.4507C221.752 17.5704 221.772 17.6971 221.765 17.8239C221.758 17.9506 221.724 18.0748 221.666 18.1893C221.607 18.3039 221.525 18.4066 221.425 18.4915C221.324 18.5765 221.206 18.642 221.078 18.6844C220.95 18.7268 220.814 18.7453 220.679 18.7387V18.7329Z" fill="#92070F"/>
<path d="M304.295 47.4649C304.087 47.4648 303.883 47.4055 303.711 47.295C300.134 45.0061 296.39 42.7943 292.585 40.733C292.461 40.6727 292.352 40.5897 292.264 40.4889C292.176 40.3882 292.11 40.2718 292.072 40.1468C292.033 40.0218 292.022 39.8908 292.038 39.7616C292.055 39.6324 292.1 39.5077 292.169 39.395C292.239 39.2824 292.332 39.184 292.444 39.1059C292.555 39.0278 292.682 38.9716 292.818 38.9407C292.953 38.9097 293.093 38.9046 293.231 38.9258C293.368 38.9469 293.5 38.9938 293.617 39.0636C297.466 41.1576 301.258 43.3926 304.873 45.7105C305.052 45.8277 305.186 45.9947 305.257 46.1876C305.327 46.3805 305.331 46.5893 305.267 46.7841C305.202 46.9789 305.074 47.1497 304.899 47.272C304.725 47.3943 304.513 47.4618 304.295 47.4649Z" fill="#92070F"/>
<path d="M32.5056 253.593C32.3013 253.592 32.1016 253.536 31.9318 253.43C31.762 253.323 31.6297 253.173 31.5516 252.996C29.9368 249.36 28.3343 245.326 26.9219 241.333C26.8447 241.093 26.871 240.833 26.9951 240.61C27.1192 240.388 27.3314 240.219 27.5866 240.14C27.8417 240.061 28.1198 240.078 28.3616 240.188C28.6034 240.298 28.7899 240.491 28.8816 240.727C30.6471 245.714 32.3466 249.75 33.4597 252.259C33.5245 252.405 33.5497 252.565 33.533 252.723C33.5162 252.88 33.4581 253.032 33.3638 253.164C33.2695 253.296 33.1418 253.404 32.9921 253.479C32.8425 253.553 32.6754 253.592 32.5056 253.593Z" fill="#92070F"/>
<path d="M21.6257 218.783C21.3838 218.783 21.1498 218.703 20.9645 218.557C20.7792 218.412 20.6544 218.21 20.6118 217.988C19.1009 210.075 18.1812 202.074 17.8591 194.042C17.854 193.916 17.8756 193.789 17.9227 193.67C17.9699 193.551 18.0416 193.442 18.1338 193.349C18.226 193.256 18.337 193.181 18.4603 193.128C18.5836 193.075 18.7168 193.046 18.8524 193.041C18.988 193.036 19.1233 193.056 19.2505 193.1C19.3778 193.144 19.4945 193.211 19.594 193.297C19.6935 193.384 19.7739 193.487 19.8305 193.603C19.8872 193.718 19.919 193.842 19.9241 193.969C20.244 201.911 21.1534 209.824 22.6458 217.648C22.6724 217.787 22.666 217.93 22.627 218.067C22.588 218.204 22.5173 218.331 22.42 218.439C22.3226 218.547 22.2011 218.634 22.0638 218.694C21.9266 218.753 21.777 218.784 21.6257 218.783ZM19.7176 171.039C19.5727 171.039 19.4293 171.012 19.2966 170.957C19.1639 170.903 19.045 170.823 18.9476 170.722C18.8503 170.622 18.7765 170.504 18.7313 170.375C18.6861 170.246 18.6704 170.11 18.6851 169.975C19.5642 161.981 21.0352 154.052 23.0877 146.248C23.1579 146.004 23.3272 145.796 23.5595 145.668C23.7917 145.54 24.0685 145.502 24.3305 145.562C24.5925 145.622 24.819 145.775 24.9615 145.989C25.1039 146.203 25.1511 146.461 25.0928 146.707C23.0621 154.424 21.6082 162.264 20.7419 170.17C20.7149 170.407 20.5954 170.626 20.4064 170.785C20.2174 170.944 19.9721 171.032 19.7176 171.033V171.039ZM32.0188 124.663C31.8497 124.663 31.6832 124.624 31.534 124.549C31.3847 124.475 31.2573 124.368 31.1629 124.237C31.0685 124.105 31.01 123.955 30.9925 123.797C30.975 123.64 30.9992 123.481 31.0628 123.335C34.3075 115.891 38.1147 108.672 42.4554 101.732C42.6021 101.531 42.8251 101.389 43.0795 101.334C43.3339 101.28 43.6008 101.318 43.8266 101.44C44.0523 101.563 44.2202 101.76 44.2964 101.993C44.3726 102.227 44.3516 102.478 44.2375 102.697C39.9466 109.558 36.183 116.695 32.9749 124.055C32.8987 124.234 32.7669 124.387 32.5965 124.496C32.4261 124.604 32.2249 124.662 32.0188 124.663Z" fill="#92070F"/>
<path d="M57.7812 83.3993C57.5877 83.3989 57.3981 83.3477 57.2343 83.2515C57.0704 83.1552 56.9387 83.0179 56.8543 82.8551C56.7699 82.6923 56.7362 82.5106 56.7569 82.3308C56.7777 82.1509 56.8521 81.9802 56.9717 81.838C59.7099 78.5956 62.603 75.4033 65.5725 72.3481C65.7587 72.1671 66.0132 72.0611 66.2818 72.0526C66.5503 72.0441 66.8119 72.1338 67.0108 72.3026C67.2098 72.4715 67.3304 72.7062 67.3472 72.9568C67.3639 73.2075 67.2755 73.4544 67.1006 73.6451C64.1621 76.6675 61.3 79.8211 58.5928 83.0326C58.496 83.1471 58.3726 83.2396 58.2321 83.3031C58.0915 83.3666 57.9374 83.3995 57.7812 83.3993Z" fill="#92070F"/>
<path d="M271.641 267.55C274.373 247.98 279.323 244.309 282.476 227.362C284.267 217.756 286.297 206.869 282.355 193.637C279.284 183.31 274.475 172.291 263.929 168.2V74.4962C263.921 68.4243 261.337 62.6031 256.743 58.3097C252.149 54.0164 245.92 51.6015 239.423 51.5949H135.042C130.867 51.599 126.864 53.151 123.912 55.9104C120.96 58.6697 119.3 62.411 119.296 66.313V107.976C107.598 95.7205 106.809 94.2131 102.84 92.7733C98.6439 91.2409 94.9373 91.3297 92.4035 93.0281C89.306 95.1125 88.924 98.9146 88.7381 100.748C88.2487 105.573 89.4898 110.224 97.8448 123.597C104.313 133.92 111.477 143.848 119.296 153.319V153.769C114.84 154.817 110.381 163.33 109.714 170.601C109.329 177.208 111.221 183.757 115.112 189.285C112.879 192.086 111.31 195.299 110.509 198.711C109.529 203.405 110.105 208.268 112.161 212.648C110.445 214.818 109.236 217.3 108.612 219.935C106.559 229.136 112.612 239.235 120.029 245.882V256.418C120.033 259.726 121.441 262.897 123.944 265.236C126.447 267.576 129.84 268.891 133.379 268.896H143.198C144.242 274.182 146.604 279.164 150.093 283.438C153.582 287.712 158.1 291.157 163.281 293.493L183.893 356.604C183.929 356.73 183.991 356.847 184.076 356.95C184.161 357.052 184.268 357.138 184.389 357.201C184.51 357.264 184.644 357.304 184.782 357.317C184.92 357.331 185.059 357.319 185.192 357.281C185.325 357.243 185.448 357.181 185.555 357.098C185.661 357.014 185.748 356.912 185.812 356.796C185.875 356.68 185.912 356.554 185.922 356.425C185.931 356.295 185.913 356.165 185.867 356.043L165.758 294.476C172.194 296.735 179.123 297.49 185.942 296.674C186.213 296.637 186.456 296.501 186.62 296.295C186.783 296.09 186.853 295.833 186.813 295.58C186.771 295.328 186.625 295.101 186.406 294.949C186.187 294.796 185.913 294.729 185.642 294.763C182.751 295.149 167.731 296.62 156.014 286.657C150.551 281.928 146.809 275.719 145.315 268.901H234.273C234.804 269.739 235.357 270.584 235.964 271.439C236.038 271.547 236.134 271.64 236.247 271.713C236.36 271.786 236.487 271.837 236.621 271.864C236.755 271.89 236.894 271.891 237.028 271.867C237.163 271.843 237.291 271.794 237.405 271.724C237.52 271.653 237.618 271.561 237.694 271.455C237.77 271.348 237.822 271.228 237.848 271.102C237.874 270.977 237.873 270.847 237.845 270.722C237.817 270.596 237.762 270.477 237.685 270.372C232.067 262.828 229.122 253.828 229.266 244.637C229.606 236.786 233.362 229.979 240.844 216.417C244.319 210.117 248.071 203.97 251.995 198.095L253.009 200.11C253.126 200.342 253.336 200.521 253.594 200.607C253.851 200.694 254.135 200.682 254.383 200.573C254.631 200.464 254.822 200.267 254.915 200.026C255.008 199.785 254.994 199.52 254.878 199.288L251.78 193.112C251.7 192.952 251.574 192.816 251.416 192.718C251.258 192.62 251.075 192.565 250.886 192.558C247.521 192.44 244.217 191.677 241.181 190.316C238.921 189.287 235.909 187.449 228.741 178.624C222.814 171.326 219.839 167.661 217.883 162.435C216.454 158.586 214.499 153.321 216.954 148.265C217.6 146.484 218.85 144.948 220.516 143.893C223.158 149.329 226.933 154.217 231.62 158.274C235.399 161.661 237.09 162.356 242.816 162.134C244.22 162.069 245.617 161.902 246.994 161.636C248.954 163.667 251.268 165.375 253.837 166.687C258.306 169.014 260.28 168.81 263.433 170.093C265.284 170.863 267 171.891 268.521 173.142C266.033 173.872 263.814 175.242 262.12 177.095C261.941 177.29 261.853 177.542 261.874 177.798C261.895 178.053 262.024 178.29 262.232 178.457C262.44 178.623 262.711 178.706 262.984 178.686C263.257 178.666 263.511 178.546 263.689 178.351C265.391 176.484 267.712 175.201 270.283 174.708C272.034 176.48 273.548 178.445 274.79 180.559C273.239 182.363 271.252 183.797 268.994 184.746C268.778 184.835 268.602 184.991 268.494 185.188C268.386 185.384 268.354 185.609 268.402 185.825C268.451 186.041 268.577 186.235 268.759 186.375C268.942 186.514 269.171 186.591 269.407 186.593C269.549 186.593 269.69 186.564 269.82 186.51C272.105 185.55 274.146 184.148 275.809 182.397C277.717 186.178 279.238 190.12 280.352 194.17C284.17 206.983 282.181 217.642 280.428 227.047C277.302 243.863 272.348 247.49 269.583 267.317C268.834 272.626 268.409 277.97 268.308 283.324C268.191 291.212 268.839 297.413 271.612 314.907C273.048 323.964 274.582 333.097 276.17 342.046C276.188 342.174 276.234 342.298 276.305 342.409C276.375 342.52 276.469 342.617 276.58 342.693C276.691 342.77 276.818 342.825 276.952 342.855C277.087 342.885 277.226 342.89 277.362 342.869C277.499 342.848 277.629 342.801 277.746 342.732C277.863 342.663 277.963 342.572 278.042 342.466C278.121 342.36 278.176 342.24 278.204 342.114C278.232 341.987 278.233 341.857 278.206 341.73C276.62 332.79 275.088 323.671 273.663 314.623C270.904 297.253 270.258 291.116 270.376 283.357C270.477 278.07 270.9 272.793 271.641 267.55ZM99.6269 122.623C91.5548 109.703 90.3468 105.334 90.7907 100.926C90.9601 99.262 91.276 96.1663 93.6053 94.5933C96.23 92.8409 100.046 93.8213 102.09 94.5702C105.601 95.842 106.103 97.0927 119.294 110.873V150.052C112.147 141.292 105.579 132.132 99.6289 122.623H99.6269ZM111.769 170.763C112.471 163.108 117.202 155.568 120.163 155.568H120.262C121.029 155.612 122.93 158.119 126.251 163.462C132.446 173.391 127.903 167.708 140.499 186.247C140.04 185.877 139.481 185.633 138.883 185.541C136.623 185.155 134.854 186.699 132.954 188.304C130.98 189.97 128.277 192.251 128.204 195.638C128.167 197.761 129.165 199.217 130.821 201.621C131.453 202.521 132.143 203.385 132.886 204.208C131.412 203.201 130.022 202.092 128.727 200.89C123.668 196.414 120.599 193.901 117.21 188.808C113.346 183.506 111.437 177.171 111.771 170.763H111.769ZM141.98 191.335C143.405 193.554 144.638 195.689 145.759 197.846C146.058 203.521 142.455 206.128 137.193 205.624C135.419 204.141 133.865 202.442 132.572 200.573C131.033 198.34 130.261 197.219 130.288 195.673C130.333 193.126 132.559 191.248 134.356 189.733C135.932 188.395 137.292 187.224 138.542 187.446C139.079 187.531 139.744 187.903 141.982 191.335H141.98ZM112.529 199.107C113.213 196.21 114.499 193.467 116.314 191.034C119.655 195.65 121.551 197.19 127.325 202.295C129.029 203.973 130.983 205.412 133.127 206.568C136.518 209.244 139.37 212.463 141.551 216.075C142.565 217.704 143.478 219.386 144.285 221.113C143.952 220.727 143.624 220.366 143.316 220.072C142.242 218.778 140.684 217.911 138.955 217.644C136.343 217.48 134.496 219.401 132.871 221.091C130.775 223.234 128.611 225.451 128.849 228.545C128.998 230.045 129.648 231.463 130.707 232.598C129.322 231.316 127.969 229.908 126.701 228.587C119.622 221.19 109.913 211.048 112.531 199.107H112.529ZM134.181 233.333C132.361 231.54 131.048 230.245 130.907 228.408C130.734 226.14 132.512 224.32 134.401 222.388C136.053 220.678 137.319 219.437 138.816 219.57C140.035 219.833 141.114 220.494 141.856 221.435C143.531 223.117 144.847 225.082 145.734 227.225C145.755 228.325 145.6 229.421 145.276 230.479C144.423 233.181 142.441 236.504 139.448 236.964C137.482 236.047 135.701 234.818 134.183 233.333H134.181ZM137.943 239.932C137.696 241.369 137.172 242.752 136.396 244.014C135.488 245.477 134.354 247.295 132.632 247.546C131.851 247.529 131.082 247.361 130.375 247.052C129.667 246.742 129.036 246.299 128.522 245.749C127.479 245.004 126.635 244.043 126.055 242.942C125.476 241.84 125.178 240.628 125.183 239.401C125.307 238.248 125.725 237.14 126.402 236.169C127.079 235.198 127.995 234.393 129.074 233.822C131.236 236.173 134.063 237.909 137.231 238.83C137.501 239.179 137.743 239.548 137.953 239.932H137.943ZM110.635 220.327C111.11 218.32 111.964 216.407 113.157 214.68C116.452 220.262 120.528 225.409 125.278 229.985C126.038 230.778 126.815 231.589 127.608 232.382C126.357 233.133 125.304 234.138 124.528 235.324C123.752 236.509 123.274 237.843 123.129 239.226C123.094 240.751 123.438 242.262 124.134 243.642C124.83 245.021 125.86 246.231 127.141 247.175C128.474 248.499 130.278 249.323 132.215 249.491C135.157 249.491 136.778 247.227 138.185 244.969C138.428 244.583 138.649 244.174 138.852 243.765C138.792 244.82 138.546 245.859 138.125 246.839C137.579 248.439 136.401 249.783 134.831 250.599C132.434 251.473 127.917 249.684 123.323 246.054C115.779 240.102 108.591 229.5 110.635 220.327ZM233.108 266.96H133.383C130.391 266.957 127.523 265.844 125.407 263.867C123.292 261.89 122.101 259.209 122.098 256.412V247.615C125.503 250.288 131.451 253.905 135.581 252.406C137.485 251.533 138.971 250.028 139.75 248.185H227.25C227.696 254.773 229.697 261.187 233.108 266.967V266.96ZM246.118 193.894C247.452 194.176 248.807 194.362 250.172 194.45L250.95 195.994C249.298 198.429 247.698 200.931 246.118 203.459V193.894ZM215.065 147.477C212.277 153.225 214.474 159.148 215.932 163.07C217.997 168.586 221.036 172.334 227.093 179.793C234.537 188.957 237.8 190.924 240.282 192.053C241.499 192.591 242.759 193.043 244.049 193.404V206.817C242.32 209.681 240.631 212.582 239.01 215.519C231.762 228.655 227.13 236.514 227.18 246.255H140.479C140.88 245.034 141.015 243.751 140.878 242.481C140.74 241.211 140.332 239.979 139.678 238.859C139.884 238.828 140.091 238.834 140.297 238.786C144.813 237.705 146.763 232.573 147.254 231.027C149.203 224.903 145.821 219.254 143.345 215.116C141.679 212.364 139.64 209.825 137.278 207.562C144.871 208.141 149.862 203.04 147.041 193.369C146.43 191.538 145.511 189.809 144.318 188.249C130.612 168.134 134.236 172.83 129.766 165.322V72.6319C129.766 71.0986 130.416 69.6279 131.575 68.5425C132.734 67.457 134.306 66.8454 135.946 66.8419H237.872C239.512 66.8465 241.083 67.4585 242.241 68.5438C243.399 69.6292 244.049 71.0993 244.049 72.6319V155.686C243.384 155.016 242.674 154.315 241.862 153.563C231.607 143.957 221.082 135.112 215.065 147.477ZM237.257 159.758C235.632 159.106 234.187 158.116 233.034 156.863C228.637 153.066 225.081 148.499 222.569 143.42C227.975 143.295 235.634 150.451 240.4 154.914C242.364 156.753 243.677 158.154 245.356 159.932C242.674 160.409 239.913 160.35 237.257 159.758ZM246.114 157.828V72.6203C246.109 70.5788 245.239 68.6223 243.695 67.1788C242.15 65.7352 240.057 64.9222 237.872 64.9177H135.921C133.737 64.9273 131.647 65.745 130.106 67.1917C128.565 68.6384 127.701 70.5965 127.701 72.6377V161.96C124.112 156.228 122.563 154.421 121.361 153.877V66.313C121.365 62.9234 122.808 59.6737 125.373 57.277C127.938 54.8803 131.415 53.5323 135.042 53.5287H236.823C240.457 53.5302 243.942 54.876 246.517 57.2719C249.092 59.6678 250.548 62.919 250.566 66.315V162.249C248.983 160.863 247.496 159.383 246.114 157.82V157.828Z" fill="#92070F"/>
<path d="M46.6803 43.7631C45.8181 43.7665 44.9742 43.5307 44.2555 43.0854C43.5368 42.6402 42.9757 42.0056 42.6433 41.262C42.3109 40.5184 42.2221 39.6994 42.3882 38.9086C42.5543 38.1178 42.9678 37.391 43.5764 36.82C44.1849 36.2491 44.9611 35.8599 45.8065 35.7016C46.6519 35.5434 47.5286 35.6232 48.3255 35.9311C49.1223 36.239 49.8034 36.761 50.2825 37.4309C50.7617 38.1009 51.0172 38.8888 51.0168 39.6946C51.0152 40.7705 50.5583 41.8021 49.7459 42.5643C48.9335 43.3265 47.8314 43.7575 46.6803 43.7631ZM46.6803 37.5543C46.2266 37.5508 45.782 37.6734 45.403 37.9065C45.0239 38.1396 44.7275 38.4727 44.5513 38.8635C44.3752 39.2542 44.3272 39.6851 44.4134 40.1015C44.4997 40.5178 44.7163 40.9008 45.0358 41.2019C45.3553 41.5029 45.7633 41.7085 46.2081 41.7925C46.6528 41.8765 47.1142 41.8352 47.5338 41.6737C47.9533 41.5122 48.3121 41.2379 48.5645 40.8856C48.817 40.5332 48.9518 40.1187 48.9518 39.6946C48.9513 39.1303 48.7123 38.589 48.2869 38.1885C47.8615 37.788 47.2841 37.5608 46.6803 37.5562V37.5543Z" fill="#92070F"/>
<path d="M57.354 39.1001C56.4931 39.1001 55.6514 38.8615 54.9356 38.4145C54.2197 37.9674 53.6618 37.332 53.3323 36.5886C53.0029 35.8452 52.9167 35.0272 53.0846 34.238C53.2526 33.4488 53.6672 32.7238 54.276 32.1549C54.8847 31.5859 55.6604 31.1984 56.5048 31.0414C57.3492 30.8844 58.2244 30.965 59.0198 31.2729C59.8152 31.5809 60.4951 32.1023 60.9734 32.7714C61.4517 33.4404 61.707 34.227 61.707 35.0317C61.7054 36.1102 61.2462 37.1442 60.4302 37.9068C59.6142 38.6695 58.508 39.0986 57.354 39.1001ZM57.354 32.8932C56.9015 32.8932 56.4591 33.0187 56.0828 33.2536C55.7066 33.4886 55.4133 33.8226 55.2401 34.2133C55.067 34.6041 55.0217 35.0341 55.1099 35.4489C55.1982 35.8637 55.4161 36.2447 55.7361 36.5438C56.0561 36.8429 56.4638 37.0465 56.9076 37.129C57.3515 37.2115 57.8115 37.1692 58.2296 37.0073C58.6477 36.8455 59.005 36.5714 59.2564 36.2197C59.5078 35.8681 59.642 35.4546 59.642 35.0317C59.6431 34.7501 59.5847 34.4711 59.4703 34.2107C59.3558 33.9502 59.1875 33.7134 58.9749 33.5139C58.7624 33.3144 58.5098 33.156 58.2317 33.0478C57.9535 32.9397 57.6553 32.8838 57.354 32.8836V32.8932Z" fill="#92070F"/>
<path d="M69.0721 34.4159C68.2112 34.4156 67.3697 34.1766 66.6541 33.7292C65.9385 33.2818 65.3808 32.6462 65.0518 31.9026C64.7227 31.1591 64.6369 30.341 64.8052 29.5519C64.9736 28.7628 65.3886 28.038 65.9976 27.4693C66.6067 26.9006 67.3825 26.5135 68.227 26.3569C69.0715 26.2002 69.9467 26.2812 70.742 26.5895C71.5372 26.8978 72.2168 27.4195 72.6948 28.0888C73.1727 28.7581 73.4276 29.5448 73.4272 30.3494C73.4256 31.4281 72.9661 32.4622 72.1496 33.2246C71.3331 33.9869 70.2263 34.4154 69.0721 34.4159ZM69.0721 28.211C68.6197 28.2114 68.1775 28.3371 67.8016 28.5723C67.4256 28.8075 67.1326 29.1416 66.9598 29.5324C66.7869 29.9232 66.7419 30.3531 66.8304 30.7678C66.9189 31.1825 67.137 31.5633 67.4571 31.8622C67.7771 32.1611 68.1848 32.3646 68.6286 32.4469C69.0724 32.5293 69.5323 32.4868 69.9503 32.3249C70.3682 32.163 70.7255 31.8889 70.9768 31.5373C71.2281 31.1857 71.3622 30.7723 71.3622 30.3494C71.3617 29.7821 71.1202 29.2382 70.6908 28.8372C70.2613 28.4362 69.6792 28.211 69.0721 28.211Z" fill="#92070F"/>
<path d="M29.4165 291.859C28.5429 291.859 27.689 291.616 26.9626 291.163C26.2362 290.709 25.6701 290.064 25.3357 289.31C25.0014 288.556 24.914 287.726 25.0844 286.925C25.2548 286.124 25.6755 285.389 26.2932 284.811C26.911 284.234 27.698 283.841 28.5548 283.681C29.4117 283.522 30.2998 283.604 31.1069 283.916C31.914 284.229 32.6038 284.758 33.0892 285.437C33.5745 286.116 33.8336 286.914 33.8336 287.73C33.8325 288.825 33.3668 289.874 32.5387 290.648C31.7105 291.422 30.5877 291.858 29.4165 291.859ZM29.4165 285.534C28.9513 285.534 28.4964 285.663 28.1096 285.905C27.7228 286.146 27.4213 286.49 27.2434 286.891C27.0654 287.293 27.0189 287.735 27.1099 288.162C27.2008 288.588 27.425 288.98 27.7541 289.287C28.0833 289.595 28.5026 289.804 28.959 289.889C29.4153 289.973 29.8883 289.929 30.3181 289.763C30.7478 289.596 31.115 289.314 31.3732 288.952C31.6314 288.59 31.769 288.165 31.7686 287.73C31.768 287.148 31.52 286.589 31.079 286.177C30.6379 285.765 30.04 285.534 29.4165 285.534Z" fill="#92070F"/>
<path d="M41.899 291.2C41.0253 291.2 40.1712 290.958 39.4448 290.505C38.7184 290.051 38.1522 289.406 37.818 288.652C37.4837 287.897 37.3964 287.067 37.567 286.266C37.7376 285.465 38.1584 284.73 38.7764 284.152C39.3943 283.575 40.1816 283.182 41.0385 283.023C41.8955 282.864 42.7837 282.946 43.5907 283.259C44.3978 283.571 45.0875 284.101 45.5726 284.78C46.0577 285.459 46.3164 286.258 46.316 287.074C46.3144 288.168 45.8484 289.217 45.0203 289.991C44.1923 290.764 43.0697 291.199 41.899 291.2ZM41.899 284.876C41.4338 284.876 40.979 285.005 40.5923 285.246C40.2055 285.488 39.904 285.831 39.726 286.233C39.548 286.635 39.5014 287.077 39.5921 287.503C39.6829 287.929 39.9069 288.321 40.2358 288.628C40.5648 288.936 40.9839 289.145 41.4401 289.23C41.8964 289.315 42.3693 289.271 42.7991 289.105C43.2288 288.939 43.5962 288.657 43.8546 288.295C44.1131 287.934 44.251 287.509 44.251 287.074C44.2505 286.491 44.0025 285.932 43.5615 285.52C43.1205 285.108 42.5226 284.876 41.899 284.876Z" fill="#92070F"/>
<path d="M54.3786 290.207C53.5049 290.207 52.6507 289.965 51.924 289.512C51.1974 289.059 50.6309 288.414 50.2963 287.66C49.9617 286.905 49.8739 286.075 50.0441 285.274C50.2143 284.473 50.6348 283.738 51.2525 283.16C51.8701 282.583 52.6572 282.189 53.514 282.03C54.3709 281.87 55.2591 281.952 56.0664 282.264C56.8736 282.577 57.5636 283.106 58.049 283.785C58.5344 284.464 58.7935 285.262 58.7935 286.078C58.7925 287.173 58.327 288.222 57.4993 288.996C56.6717 289.77 55.5493 290.205 54.3786 290.207ZM54.3786 283.88C53.9133 283.88 53.4584 284.008 53.0713 284.25C52.6842 284.491 52.3824 284.834 52.2041 285.236C52.0258 285.638 51.9789 286.08 52.0694 286.506C52.1599 286.933 52.3838 287.325 52.7126 287.632C53.0415 287.94 53.4606 288.149 53.9169 288.234C54.3732 288.319 54.8462 288.276 55.2761 288.11C55.706 287.943 56.0735 287.662 56.332 287.3C56.5905 286.938 56.7285 286.513 56.7285 286.078C56.728 285.496 56.4803 284.937 56.0398 284.525C55.5992 284.113 55.0018 283.881 54.3786 283.88Z" fill="#92070F"/>
<path d="M322.469 253.201C321.473 253.307 320.468 253.091 319.621 252.589C318.774 252.087 318.137 251.329 317.815 250.441C317.685 249.935 317.69 249.407 317.827 248.903C317.964 248.399 318.23 247.933 318.601 247.546C318.95 247.18 319.337 246.847 319.756 246.552C320.379 246.103 321.137 245.848 321.924 245.822C322.71 245.795 323.486 245.999 324.142 246.405C326.794 245.464 329.111 243.845 330.828 241.735C330.721 241.574 330.603 241.419 330.475 241.272C329.855 240.621 329.516 239.777 329.527 238.905C329.537 238.033 329.895 237.196 330.531 236.558C330.744 236.341 330.973 236.138 331.215 235.949C331.904 235.393 332.8 235.116 333.708 235.178C334.615 235.24 335.459 235.636 336.055 236.279C339.493 240.179 336.74 244.732 332.897 248.32C330.448 250.591 326.197 253.201 322.469 253.201ZM321.079 248.034C320.667 248.31 320.301 248.641 319.993 249.019C319.898 249.163 319.834 249.323 319.805 249.491C319.776 249.658 319.782 249.829 319.824 249.994C319.866 250.16 319.942 250.315 320.049 250.453C320.155 250.59 320.289 250.707 320.443 250.796C323.396 252.442 328.639 249.551 331.419 246.973C334.339 244.248 337.122 240.519 334.516 237.556C334.398 237.425 334.252 237.318 334.088 237.241C333.924 237.164 333.746 237.118 333.562 237.107C332.978 237.024 332.544 237.398 332.117 237.796C331.809 238.073 331.624 238.448 331.6 238.847C331.575 239.246 331.713 239.639 331.985 239.948C332.382 240.391 332.718 240.881 332.982 241.405C333.06 241.558 333.093 241.729 333.078 241.898C333.062 242.068 333 242.23 332.895 242.37C330.833 245.131 327.898 247.22 324.501 248.343C324.304 248.455 324.071 248.502 323.842 248.476C323.612 248.45 323.399 248.353 323.235 248.2C322.957 247.935 322.586 247.772 322.191 247.742C321.795 247.711 321.4 247.815 321.079 248.034Z" fill="#92070F"/>
<path d="M48.1849 70.0361C17.8831 70.0361 1.81949 47.2814 16.8341 24.6579C29.0176 6.29202 56.8951 -4.05085 79.2446 1.4979C101.829 7.11034 110.195 26.8118 97.8792 45.3726C87.7462 60.6447 67.1065 70.0341 48.1849 70.0361ZM66.5242 1.92636C48.251 1.92636 28.3072 11.0302 18.5914 25.6654C7.0109 43.1164 14.7526 61.38 35.9994 66.6566C57.4547 72.0008 84.4112 62.0015 96.1218 44.3536C110.232 23.1023 95.3351 1.92636 66.5242 1.92636Z" fill="#92070F"/>
<path d="M16.6178 318.018C-4.29441 305.162 -5.65524 282.506 13.5906 267.539C23.6772 260.071 36.0439 255.796 48.9021 255.331C76.9964 253.88 100.843 268.612 102.018 288.221C102.592 297.776 97.7868 307.021 88.486 314.25C69.647 328.895 37.5487 330.881 16.6178 318.018ZM52.7801 257.161C39.3969 257.161 25.3549 260.903 14.9101 269.023C-3.26191 283.148 -2.00226 304.263 17.7536 316.404C37.6086 328.61 68.7343 327.097 87.1706 312.764C95.9551 305.936 100.498 297.259 99.9613 288.331C98.9019 270.652 78.0888 257.161 52.7801 257.161Z" fill="#92070F"/>
<path d="M321.908 272.599C302.464 272.599 286.245 262.739 284.209 248.713C281.923 232.942 298.431 217.787 320.999 214.921C331.284 213.445 341.804 215.068 351.037 219.553C368.812 228.696 371.461 246.959 356.93 260.193C347.784 268.521 334.424 272.597 321.908 272.599ZM321.278 216.832C299.831 219.543 284.12 233.735 286.255 248.453C288.391 263.171 307.579 272.929 329.02 270.218C338.915 269.136 348.185 265.14 355.489 258.807C369.021 246.484 366.6 229.759 350.039 221.244C341.195 216.96 331.123 215.415 321.278 216.832Z" fill="#92070F"/>
<path d="M332.767 117.302C298.998 117.302 281.2 91.9726 297.881 66.8304C305.196 56.3726 315.881 48.3614 328.391 43.9561C355.573 33.8699 384.239 41.0881 392.293 60.0465C400.346 79.0049 384.778 102.63 357.601 112.716C349.705 115.691 341.28 117.247 332.767 117.302ZM353.223 41.3178C332.804 41.3178 310.531 51.4329 299.636 67.8476C286.672 87.3869 295.353 107.847 319.136 113.76C331.709 116.576 344.914 115.582 356.843 110.921C382.967 101.231 398.013 78.725 390.382 60.7587C385.108 48.3642 370.408 41.3178 353.223 41.3178Z" fill="#92070F"/>
</svg>
