<svg width="60" height="60" viewBox="0 0 60 60" fill="none" xmlns="http://www.w3.org/2000/svg">
<circle cx="30" cy="30" r="30" fill="#FFD6D6"/>
<path d="M30.3798 37.3274L30.8082 38.231H30.8082L30.3798 37.3274ZM29.6199 37.3274L29.1915 38.231H29.1915L29.6199 37.3274ZM38.3332 26.25C38.3332 29.0736 36.7559 31.3884 34.8354 33.1575C32.9217 34.9205 30.7852 36.0285 29.9514 36.4238L30.8082 38.231C31.725 37.7963 34.0651 36.5864 36.1905 34.6285C38.3091 32.6768 40.3332 29.8679 40.3332 26.25H38.3332ZM29.9998 18.5C34.664 18.5 38.3332 22.0296 38.3332 26.25H40.3332C40.3332 20.8054 35.645 16.5 29.9998 16.5V18.5ZM21.6665 26.25C21.6665 22.0296 25.3357 18.5 29.9998 18.5V16.5C24.3547 16.5 19.6665 20.8054 19.6665 26.25H21.6665ZM30.0482 36.4238C29.2145 36.0285 27.078 34.9205 25.1643 33.1575C23.2438 31.3884 21.6665 29.0736 21.6665 26.25H19.6665C19.6665 29.8679 21.6906 32.6768 23.8092 34.6285C25.9346 36.5864 28.2747 37.7963 29.1915 38.231L30.0482 36.4238ZM29.9514 36.4238C29.9631 36.4182 29.98 36.4136 29.9998 36.4136C30.0197 36.4136 30.0366 36.4182 30.0482 36.4238L29.1915 38.231C29.7052 38.4745 30.2944 38.4745 30.8082 38.231L29.9514 36.4238ZM32.9998 26.25C32.9998 27.709 31.7185 29 29.9998 29V31C32.6995 31 34.9998 28.9332 34.9998 26.25H32.9998ZM29.9998 23.5C31.7185 23.5 32.9998 24.791 32.9998 26.25H34.9998C34.9998 23.5668 32.6995 21.5 29.9998 21.5V23.5ZM26.9998 26.25C26.9998 24.791 28.2812 23.5 29.9998 23.5V21.5C27.3002 21.5 24.9998 23.5668 24.9998 26.25H26.9998ZM29.9998 29C28.2812 29 26.9998 27.709 26.9998 26.25H24.9998C24.9998 28.9332 27.3002 31 29.9998 31V29Z" fill="#693030"/>
<path d="M40.3923 36.875C41.4455 37.4451 42 38.0917 42 38.75C42 39.4083 41.4455 40.0549 40.3923 40.625C39.3391 41.1951 37.8242 41.6685 36 41.9976C34.1758 42.3267 32.1064 42.5 30 42.5C27.8936 42.5 25.8242 42.3267 24 41.9976C22.1758 41.6685 20.6609 41.1951 19.6077 40.625C18.5545 40.0549 18 39.4083 18 38.75C18 38.0917 18.5545 37.4451 19.6077 36.875" stroke="#693030" stroke-width="2" stroke-linecap="round"/>
</svg>
