<svg width="60" height="60" viewBox="0 0 60 60" fill="none" xmlns="http://www.w3.org/2000/svg">
<circle cx="30" cy="30" r="30" fill="#FFD6D6"/>
<path d="M19.0878 18.1941L20.763 16.6344C21.147 16.2769 21.7419 16.2769 22.1259 16.6344L27.1028 21.2681C27.5276 21.6636 27.5276 22.3364 27.1028 22.7319L25.1231 24.575C24.8542 24.8254 24.7879 25.2257 24.9617 25.5494C26.862 29.0878 29.8566 31.916 33.4978 33.611L33.812 33.7573C34.1271 33.904 34.4998 33.845 34.7542 33.6081L36.8741 31.6344C37.2581 31.2769 37.853 31.2769 38.237 31.6344L43.2139 36.2681C43.6387 36.6636 43.6387 37.3364 43.2139 37.7319L41.104 39.6963C39.034 41.6235 35.8993 41.8435 33.5804 40.2243L27.354 35.8765C25.5715 34.6318 23.9744 33.1406 22.6105 31.4475L18.5038 26.3495C16.5294 23.8986 16.7843 20.3387 19.0878 18.1941Z" stroke="#693030" stroke-width="2"/>
</svg>
